<svg xmlns="http://www.w3.org/2000/svg" xmlns:xlink="http://www.w3.org/1999/xlink"><defs><symbol viewBox="0 0 265 80" id="appstore">
<path d="M176.952 22.286h-4.34c0.031-0.642 0.29-1.269 0.734-1.742 0.382-0.443 0.948-0.703 1.544-0.688 0.581-0.031 1.162 0.214 1.528 0.688 0.367 0.504 0.55 1.116 0.535 1.742v0zM12.227 0.003h240.546c6.786 0.153 12.227 5.685 12.227 12.502v54.99c0 6.908-5.594 12.502-12.487 12.502h-240.012c-6.908 0-12.502-5.594-12.502-12.502v-54.99c0-6.816 5.456-12.349 12.227-12.502zM190.401 22.409h-1.055v-2.384l0.321-0.031 0.351-0.031c0.153-0.015 0.336-0.015 0.565-0.015 0.565-0.031 1.146 0.061 1.666 0.29 0.351 0.183 0.55 0.535 0.535 0.932 0 0.199-0.061 0.413-0.183 0.581-0.138 0.168-0.306 0.29-0.504 0.382-0.26 0.107-0.52 0.168-0.779 0.199-0.306 0.046-0.611 0.076-0.917 0.061v0.015zM120.357 26.489c-0.321 0.015-0.627-0.046-0.917-0.183-0.275-0.107-0.52-0.275-0.718-0.489-0.199-0.229-0.351-0.474-0.459-0.764-0.122-0.29-0.168-0.627-0.168-0.948v-1.544c0-0.336 0.061-0.672 0.199-0.978 0.107-0.29 0.29-0.55 0.504-0.779 0.214-0.214 0.459-0.397 0.749-0.52 0.275-0.122 0.565-0.199 0.871-0.199 0.351 0 0.703 0.092 1.009 0.26 0.306 0.153 0.565 0.382 0.779 0.642 0.214 0.306 0.382 0.642 0.489 1.009 0.107 0.413 0.153 0.841 0.153 1.269 0.046 0.841-0.183 1.681-0.657 2.369-0.428 0.581-1.131 0.902-1.849 0.856h0.015zM190.6 26.581c-0.214 0-0.413 0-0.611-0.015-0.183-0.015-0.428-0.031-0.642-0.061v-2.766h1.1c0.657-0.015 1.314 0.076 1.926 0.306 0.459 0.168 0.749 0.627 0.718 1.1 0.015 0.26-0.061 0.52-0.229 0.734-0.153 0.183-0.351 0.336-0.581 0.428-0.26 0.122-0.535 0.183-0.81 0.229-0.29 0.031-0.581 0.046-0.871 0.046v0zM98.915 26.612c-0.367 0.015-0.718-0.122-0.993-0.367-0.29-0.29-0.443-0.688-0.413-1.085-0.031-0.611 0.306-1.177 0.856-1.437 0.825-0.336 1.712-0.489 2.598-0.443v1.437c0 0.26-0.061 0.52-0.168 0.749s-0.26 0.428-0.459 0.596c-0.183 0.168-0.397 0.306-0.642 0.397-0.245 0.107-0.52 0.153-0.779 0.138v0.015zM237.322 52.028h-8.834c0.092-1.177 0.535-2.308 1.253-3.24 0.764-1.1 2.033-1.742 3.378-1.727 1.36-0.076 2.659 0.596 3.378 1.758 0.596 0.963 0.871 2.079 0.825 3.225v-0.015zM97.264 52.532h-7.122l2.201-6.847c0.657-2.445 1.055-4.035 1.253-4.921h0.076c0.672 2.629 1.1 4.249 1.345 4.921l2.247 6.832v0.015zM117.545 60.572c-1.269 0.046-2.476-0.474-3.316-1.421-0.856-0.948-1.314-2.201-1.284-3.469v-3.164c0.015-0.428 0.076-0.856 0.199-1.269 0.229-1.070 0.81-2.017 1.666-2.705 0.795-0.657 1.803-1.024 2.843-1.024 1.467-0.031 2.858 0.657 3.699 1.865 0.886 1.345 1.314 2.934 1.253 4.554 0.076 1.696-0.397 3.378-1.33 4.799-0.871 1.207-2.262 1.88-3.744 1.834h0.015zM139.507 60.572c-1.253 0.046-2.476-0.474-3.316-1.421-0.856-0.963-1.314-2.201-1.284-3.469v-3.164c0.015-0.428 0.076-0.856 0.199-1.269 0.229-1.070 0.825-2.017 1.666-2.705 0.795-0.657 1.803-1.024 2.843-1.024 1.467-0.031 2.858 0.657 3.699 1.865 0.886 1.345 1.314 2.934 1.253 4.554 0.076 1.696-0.397 3.393-1.345 4.799-0.856 1.207-2.247 1.88-3.714 1.834v0zM199.205 60.801c-1.605 0.031-3.087-0.841-3.851-2.262-0.779-1.36-1.177-2.904-1.131-4.478-0.046-1.589 0.336-3.179 1.131-4.554 0.764-1.421 2.277-2.293 3.897-2.247 1.589-0.031 3.057 0.841 3.806 2.247 1.528 2.812 1.513 6.205-0.046 9.002-0.734 1.421-2.201 2.308-3.806 2.293v0zM54.424 13.697c-2.889 0.306-5.563 1.666-7.489 3.821-1.88 2.124-2.843 4.921-2.659 7.764 0.153 0 0.321 0.015 0.504 0.015 2.751-0.138 5.303-1.421 7.046-3.561 1.895-2.231 2.827-5.12 2.598-8.039v0zM107.061 18.618v9.277h2.079v-7.581h3.897v-1.696h-5.976zM148.937 18.618v9.277h2.705c0.351-0.657 0.718-1.36 1.238-2.354 0.397-0.764 0.795-1.528 1.207-2.293 0.214-0.459 0.443-0.902 0.642-1.299 0.245-0.474 0.474-0.963 0.657-1.482h0.092v0.183c-0.031 0.657-0.061 1.269-0.092 1.895-0.031 0.718-0.046 1.391-0.046 2.063v3.271h1.972v-9.262h-2.705l-2.308 4.386-0.076 0.138c-0.214 0.428-0.428 0.856-0.657 1.284-0.092 0.183-0.183 0.367-0.275 0.55l-0.061 0.092c-0.122 0.26-0.26 0.52-0.382 0.779l-0.046-0.031c0.031-0.504 0.046-1.009 0.076-1.376v-0.52c0.015-0.596 0.031-1.253 0.031-2.033v-3.286l-1.972 0.015zM163.396 20.315v7.581h2.048v-7.581h2.858v-1.696h-7.749v1.696h2.843zM190.539 18.481c-0.581 0-1.192 0.031-1.773 0.061-0.657 0.046-1.085 0.092-1.421 0.153v9.201c0.397 0.031 0.81 0.046 1.238 0.076 0.535 0.031 1.039 0.031 1.528 0.031s0.993-0.015 1.574-0.076c0.565-0.046 1.131-0.168 1.666-0.351 0.504-0.183 0.963-0.474 1.33-0.871 0.382-0.413 0.565-0.978 0.55-1.544 0.015-0.581-0.214-1.146-0.642-1.528-0.474-0.382-1.055-0.642-1.651-0.718l-0.031-0.061c0.245-0.046 0.489-0.138 0.703-0.26 0.229-0.092 0.428-0.229 0.611-0.397 0.168-0.168 0.306-0.367 0.413-0.581 0.092-0.245 0.153-0.489 0.153-0.749 0.015-0.474-0.138-0.948-0.459-1.299-0.306-0.321-0.673-0.565-1.085-0.718-0.459-0.168-0.917-0.26-1.391-0.306-0.535-0.046-0.963-0.046-1.314-0.046v-0.015zM175.042 18.404c-0.627 0-1.253 0.138-1.834 0.382-0.535 0.26-1.009 0.611-1.391 1.055-0.397 0.459-0.703 0.993-0.902 1.574-0.214 0.642-0.321 1.299-0.321 1.972 0 0.657 0.107 1.314 0.321 1.926 0.199 0.55 0.52 1.055 0.917 1.467 0.413 0.428 0.917 0.749 1.467 0.948 0.627 0.229 1.299 0.351 1.972 0.336 1.070 0.015 2.14-0.168 3.148-0.581l-0.336-1.421c-0.81 0.29-1.666 0.443-2.522 0.443-0.764 0.031-1.528-0.229-2.109-0.718-0.565-0.52-0.871-1.269-0.841-2.033h6.251c0.015-0.138 0.046-0.29 0.046-0.428s0.031-0.306 0.031-0.504c0-0.611-0.092-1.223-0.275-1.803-0.168-0.504-0.428-0.978-0.779-1.391-0.336-0.382-0.764-0.688-1.238-0.886-0.504-0.229-1.055-0.336-1.62-0.336h0.015zM98.96 19.918c1.299 0 1.941 0.596 1.941 1.819v0.168h-0.031c-1.391-0.076-2.782 0.229-4.020 0.871-1.253 0.779-1.758 2.323-1.223 3.699 0.138 0.321 0.336 0.611 0.596 0.856s0.565 0.443 0.902 0.581c0.382 0.138 0.764 0.214 1.162 0.199 1.070 0.061 2.109-0.413 2.751-1.269h0.061l0.153 1.070h1.88c-0.107-0.734-0.153-1.483-0.138-2.216v-3.424c0-2.537-1.253-3.836-3.683-3.836-1.131-0.031-2.247 0.245-3.225 0.81l0.428 1.345c0.718-0.459 1.574-0.703 2.43-0.688l0.015 0.015zM138.652 26.016l-0.55 1.36c0.474 0.26 0.993 0.443 1.528 0.55 0.565 0.122 1.146 0.183 1.712 0.183 0.504 0 0.993-0.046 1.482-0.138 0.474-0.092 0.932-0.245 1.36-0.474 0.413-0.199 0.779-0.504 1.039-0.871 0.29-0.397 0.428-0.886 0.413-1.376 0-0.306-0.076-0.611-0.214-0.886-0.138-0.26-0.321-0.489-0.55-0.673-0.245-0.183-0.504-0.336-0.795-0.443-0.275-0.122-0.581-0.199-0.886-0.229v-0.061c0.245-0.061 0.489-0.138 0.718-0.245 0.245-0.107 0.459-0.245 0.642-0.413 0.199-0.168 0.351-0.367 0.459-0.596 0.122-0.245 0.183-0.504 0.183-0.779 0.015-0.413-0.092-0.825-0.321-1.177-0.199-0.321-0.489-0.581-0.81-0.779-0.367-0.199-0.749-0.336-1.146-0.413-0.428-0.092-0.871-0.122-1.299-0.122-0.535 0-1.085 0.046-1.605 0.168-0.565 0.107-1.116 0.306-1.62 0.596l0.55 1.33c0.336-0.183 0.688-0.336 1.055-0.443 0.351-0.122 0.734-0.183 1.116-0.183 0.474-0.031 0.948 0.092 1.36 0.336 0.321 0.199 0.504 0.55 0.504 0.917-0.015 0.397-0.245 0.749-0.581 0.948-0.504 0.275-1.070 0.413-1.651 0.382h-0.963v1.299h0.993c0.321-0.015 0.657 0.015 0.993 0.061 0.275 0.031 0.55 0.122 0.81 0.245 0.214 0.107 0.397 0.26 0.55 0.459 0.122 0.199 0.199 0.428 0.183 0.673 0 0.413-0.214 0.795-0.565 1.024-0.489 0.29-1.055 0.443-1.635 0.413-0.443 0-0.886-0.061-1.314-0.183-0.397-0.122-0.795-0.275-1.162-0.474l0.015 0.015zM84.823 25.71l-0.52 1.574c0.535 0.306 1.1 0.52 1.681 0.642 0.611 0.122 1.223 0.199 1.834 0.199 0.596-0.015 1.177-0.076 1.758-0.214 0.55-0.122 1.085-0.351 1.559-0.657 0.474-0.29 0.856-0.703 1.146-1.177 0.306-0.55 0.459-1.177 0.443-1.803 0-0.397-0.092-0.81-0.26-1.177-0.153-0.351-0.382-0.672-0.657-0.932-0.275-0.275-0.611-0.489-0.963-0.642-0.382-0.168-0.764-0.275-1.177-0.336v-0.061c0.718-0.153 1.36-0.535 1.849-1.070 1.085-1.299 0.932-3.24-0.351-4.356-0.856-0.611-1.91-0.932-2.965-0.871-0.672-0.015-1.36 0.076-2.017 0.275-0.535 0.168-1.039 0.397-1.528 0.673l0.459 1.467c0.413-0.199 0.841-0.351 1.269-0.489 0.459-0.153 0.948-0.229 1.437-0.229 0.596-0.031 1.177 0.138 1.651 0.474 0.413 0.336 0.642 0.825 0.627 1.36 0 0.29-0.076 0.596-0.214 0.856-0.153 0.26-0.351 0.489-0.581 0.657-0.275 0.199-0.581 0.336-0.886 0.428-0.367 0.107-0.734 0.168-1.116 0.153h-0.871v1.574h0.871c0.382 0 0.749 0.031 1.116 0.092s0.718 0.168 1.039 0.351c0.306 0.153 0.565 0.397 0.749 0.672 0.214 0.336 0.306 0.718 0.29 1.1 0.031 0.611-0.245 1.192-0.718 1.574-0.596 0.428-1.33 0.642-2.063 0.596-0.535 0-1.070-0.076-1.605-0.229-0.443-0.122-0.871-0.29-1.284-0.489v0.015zM115.94 18.634c0.015 0.397 0.031 0.948 0.046 1.559 0.015 0.459 0.031 0.948 0.031 1.498v9.995h2.079v-4.891h0.046c0.581 0.902 1.589 1.406 2.659 1.33 1.162 0.015 2.262-0.504 2.996-1.391 0.397-0.459 0.672-0.978 0.856-1.559 0.214-0.642 0.321-1.33 0.321-2.017 0-0.642-0.092-1.299-0.306-1.926-0.168-0.535-0.459-1.055-0.81-1.498-0.336-0.397-0.764-0.734-1.238-0.963s-0.993-0.336-1.528-0.336c-1.284-0.076-2.491 0.565-3.164 1.651h-0.046l-0.122-1.467-1.819 0.015zM127.174 18.634v0l3.393 8.528c0.061 0.138 0.107 0.29 0.122 0.428-0.015 0.153-0.076 0.29-0.153 0.428-0.275 0.581-0.672 1.1-1.177 1.528-0.443 0.382-0.978 0.657-1.544 0.81l0.489 1.742c0.871-0.168 1.666-0.565 2.308-1.162 0.627-0.627 1.131-1.345 1.544-2.14 0.627-1.207 1.177-2.461 1.635-3.744l2.384-6.434h-2.231l-1.589 5.166c-0.122 0.428-0.229 0.779-0.306 1.070-0.061 0.29-0.138 0.581-0.214 0.779h-0.031c-0.092-0.351-0.183-0.673-0.29-1.009s-0.183-0.611-0.275-0.81l-1.773-5.181h-2.292zM212.18 44.57c0.107 1.773 0.153 3.775 0.153 5.945l-0.046 12.93h4.249v-9.904c-0.046-1.314 0.321-2.629 1.070-3.729 0.795-1.1 2.094-1.727 3.454-1.666 0.443 0 0.902 0.031 1.345 0.107v-3.989c-0.351-0.061-0.718-0.076-1.070-0.076-1.1 0-2.17 0.351-3.072 0.993-0.978 0.779-1.712 1.819-2.124 2.996h-0.107l-0.153-3.607h-3.699zM89.408 55.757h8.605l2.476 7.688h4.509l-8.559-26.181h-5.273l-8.528 26.181h4.402l2.354-7.688h0.015zM233.44 44.142c-2.583-0.092-5.044 1.024-6.679 3.041-1.605 2.002-2.445 4.524-2.369 7.092-0.122 2.568 0.795 5.059 2.552 6.939 1.865 1.788 4.386 2.72 6.969 2.583 2.186 0.046 4.371-0.351 6.404-1.162l-0.657-2.904c-1.651 0.596-3.393 0.902-5.151 0.886-1.513 0.061-2.98-0.413-4.172-1.33-1.223-1.070-1.895-2.644-1.849-4.264h12.731c0.122-0.627 0.168-1.269 0.153-1.895 0.076-2.109-0.52-4.188-1.666-5.945-1.437-2.033-3.806-3.179-6.281-3.041h0.015zM158.016 58.707v0l-0.978 3.5c2.094 1.177 4.463 1.742 6.862 1.635 2.598 0.153 5.181-0.672 7.214-2.293 1.559-1.376 2.415-3.378 2.354-5.441 0.046-1.666-0.52-3.286-1.62-4.539-1.406-1.421-3.118-2.522-5.028-3.179-1.376-0.474-2.675-1.146-3.851-2.017-0.779-0.627-1.223-1.574-1.207-2.568-0.015-0.917 0.382-1.773 1.055-2.369 0.993-0.779 2.247-1.162 3.5-1.085 1.758-0.031 3.5 0.382 5.074 1.192l1.055-3.408c-1.865-0.886-3.928-1.314-5.991-1.253-2.338-0.107-4.646 0.611-6.495 2.063-1.589 1.284-2.476 3.24-2.43 5.288 0 3.271 2.338 5.808 6.954 7.504 1.33 0.413 2.583 1.1 3.653 2.017 0.718 0.703 1.116 1.681 1.1 2.69 0.031 1.116-0.459 2.17-1.33 2.858-1.1 0.764-2.415 1.146-3.744 1.070-2.155 0.015-4.279-0.565-6.129-1.666h-0.015zM178.648 47.703v9.522c-0.168 1.819 0.336 3.622 1.421 5.089 1.024 1.039 2.461 1.589 3.928 1.513 1.116 0.046 2.231-0.122 3.301-0.459l-0.122-3.194c-0.611 0.153-1.253 0.214-1.88 0.199-1.651 0-2.476-1.177-2.476-3.5v-9.17h4.677v-3.148h-4.677v-4.707l-4.172 1.253v3.454h-2.782v3.148h2.782zM199.403 44.172c-2.613-0.107-5.151 0.902-6.939 2.812-1.758 1.972-2.675 4.539-2.568 7.183-0.092 2.552 0.81 5.028 2.491 6.939 1.727 1.865 4.172 2.858 6.694 2.751 2.644 0.107 5.212-0.932 7-2.873 1.712-1.972 2.613-4.524 2.506-7.137 0.107-2.537-0.764-5.013-2.445-6.923-1.742-1.849-4.203-2.843-6.755-2.751h0.015zM36.405 25.955h-0.153c-4.34 0.122-8.299 2.506-10.439 6.281-4.249 7.29-1.528 18.478 3.179 25.294 1.91 2.69 4.509 6.358 7.825 6.358h0.168c1.269-0.092 2.522-0.413 3.668-0.963 1.452-0.703 3.057-1.070 4.677-1.085 1.544 0.015 3.057 0.367 4.447 1.039 1.177 0.581 2.445 0.902 3.76 0.932h0.168c3.362-0.061 5.502-2.827 7.749-6.159 1.559-2.17 2.751-4.57 3.546-7.122-4.096-1.712-6.786-5.701-6.801-10.148 0.046-3.928 2.14-7.535 5.502-9.567-2.155-3.011-5.609-4.86-9.308-4.967-0.275-0.031-0.55-0.046-0.825-0.046-2.017 0.122-4.004 0.627-5.854 1.467-0.948 0.459-1.987 0.764-3.041 0.886-1.1-0.107-2.17-0.413-3.164-0.902-1.605-0.749-3.332-1.192-5.105-1.299v0zM108.528 44.57c0.107 2.155 0.168 4.249 0.168 6.205v20.358h4.249v-9.934h0.076c1.177 1.819 3.255 2.843 5.426 2.675 2.216 0.031 4.34-0.871 5.854-2.506 1.834-2.094 2.782-4.83 2.629-7.611 0.122-2.506-0.688-4.982-2.247-6.954-2.751-3.179-7.55-3.53-10.729-0.779-0.52 0.443-0.978 0.963-1.36 1.528h-0.092l-0.229-2.996-3.744 0.015zM130.506 44.57c0.107 2.17 0.153 4.264 0.153 6.205v20.358h4.249v-9.934h0.076c1.177 1.819 3.271 2.843 5.426 2.675 2.216 0.031 4.356-0.871 5.854-2.506 1.834-2.094 2.782-4.83 2.644-7.611 0.107-2.506-0.688-4.982-2.247-6.954-2.751-3.179-7.55-3.53-10.729-0.779-0.52 0.443-0.978 0.963-1.36 1.528h-0.076l-0.26-2.996-3.729 0.015z" />
</symbol><symbol viewBox="0 0 24 24" id="arrow-bottom"><defs><style>#arrow-bottom .b{clip-path:url(#arrow-bottom_a);}</style></defs><g class="b" transform="translate(104 -964) rotate(90)"><path class="a" d="M52.592,50.872l-8.565,8.565a2.044,2.044,0,0,1-2.854,0h0a2.044,2.044,0,0,1,0-2.854l8.565-8.565-8.565-8.565a2.044,2.044,0,0,1,0-2.854h0a2.044,2.044,0,0,1,2.854,0l8.565,8.565c2.872,2.872,2.809,2.9,0,5.711Z" transform="translate(928.343 43.982)" /></g></symbol><clipPath id="arrow-bottom_a"><rect class="a" width="24" height="24" transform="translate(964 80)" /></clipPath><symbol viewBox="0 0 16 16" id="arrow-right"><defs><style>#arrow-right .b{clip-path:url(#arrow-right_a);}</style></defs><g class="b" transform="translate(596 -310)"><path class="a" d="M35.061,33.915l-5.71,5.71a1.362,1.362,0,0,1-1.9,0h0a1.362,1.362,0,0,1,0-1.9l5.71-5.71-5.71-5.71a1.362,1.362,0,0,1,0-1.9h0a1.362,1.362,0,0,1,1.9,0l5.71,5.71c1.915,1.915,1.873,1.935,0,3.807Z" transform="translate(-619.771 285.988)" /></g></symbol><clipPath id="arrow-right_a"><rect class="a" width="16" height="16" transform="translate(-596 310)" /></clipPath><symbol viewBox="0 0 16 16" id="avatar"><defs><style>#avatar .b{clip-path:url(#avatar_a);}</style></defs><g class="b" transform="translate(-1492 -77)"><path class="a" d="M18.475,17.881a11.321,11.321,0,0,1-1.091,2.071,8.7,8.7,0,0,0-1.054-1.841,2.3,2.3,0,0,0,1.475-.8,1.706,1.706,0,0,1,.079-1.024h-.006a6.618,6.618,0,0,0,1.8-4.4A3.582,3.582,0,0,0,16,8a3.575,3.575,0,0,0-3.663,3.892,6.594,6.594,0,0,0,1.8,4.408,1.279,1.279,0,0,1,.037.982,2.331,2.331,0,0,0,1.5.828,8.829,8.829,0,0,0-1.052,1.848,11.415,11.415,0,0,1-1.111-2.105l0-.005C11.486,18.607,9,19.935,9,21.246v.5C9,23.583,12.713,24,16,24s7-.417,7-2.249v-.5c0-1.331-2.426-2.629-4.526-3.366Z" transform="translate(1483.999 69.001)" /></g></symbol><clipPath id="avatar_a"><rect class="a" width="16" height="16" transform="translate(1492 77)" /></clipPath><symbol viewBox="0 0 24 24" id="burger"><defs><style>#burger .b{clip-path:url(#burger_a);}</style></defs><g class="b" transform="translate(-706 -80)"><path class="a" d="M13.5,22.5h21A1.5,1.5,0,0,1,36,24v.093a1.5,1.5,0,0,1-1.5,1.5h-21a1.5,1.5,0,0,1-1.5-1.5V24a1.5,1.5,0,0,1,1.5-1.5Zm0-7.5h21A1.5,1.5,0,0,1,36,16.5v.093a1.5,1.5,0,0,1-1.5,1.5h-21a1.5,1.5,0,0,1-1.5-1.5V16.5A1.5,1.5,0,0,1,13.5,15Z" transform="translate(694.001 71.955)" /></g></symbol><clipPath id="burger_a"><rect class="a" width="24" height="24" transform="translate(706 80)" /></clipPath><symbol viewBox="0 0 16 16" id="calendar"><defs><style>#calendar .b{clip-path:url(#calendar_a);}</style></defs><g class="b" transform="translate(-1806 -75)"><path class="a" d="M17.336,16a1.594,1.594,0,0,1,1.642,1.68c0,1.069-.84,1.757-1.68,2.444a8.776,8.776,0,0,0-1.069.993.332.332,0,0,1-.229.115h0a.328.328,0,0,1-.229-.115,8.931,8.931,0,0,0-1.069-.993c-.84-.687-1.68-1.375-1.68-2.444A1.594,1.594,0,0,1,14.664,16,2.054,2.054,0,0,1,16,16.686,2.056,2.056,0,0,1,17.337,16ZM13.479,8.973v2.291a1.694,1.694,0,0,1-1.718,1.718h-.038a1.77,1.77,0,0,1-1.222-.5h0a1.765,1.765,0,0,1-.5-1.222V8.973a2,2,0,0,0-2.024,1.986V21.995a2,2,0,0,0,2.024,1.986H21.995a1.972,1.972,0,0,0,1.986-1.986V10.959a1.972,1.972,0,0,0-1.986-1.986v2.291a1.694,1.694,0,0,1-1.718,1.718h-.038a1.77,1.77,0,0,1-1.222-.5h0a1.77,1.77,0,0,1-.5-1.222V8.973H13.48ZM10.157,14.51H21.842a.669.669,0,0,1,.649.649v6.683a.668.668,0,0,1-.649.649H10.157a.668.668,0,0,1-.649-.649V15.159A.669.669,0,0,1,10.157,14.51Zm1.565-6.53h.038a.76.76,0,0,1,.726.764v2.52a.752.752,0,0,1-.726.726h-.038A.726.726,0,0,1,11,11.264V8.744a.735.735,0,0,1,.726-.764Zm8.515,0h.038A.76.76,0,0,1,21,8.744v2.52a.752.752,0,0,1-.726.726h-.038a.726.726,0,0,1-.726-.726V8.744a.734.734,0,0,1,.726-.764Z" transform="translate(1798.019 67.02)" /></g></symbol><clipPath id="calendar_a"><rect class="a" width="16" height="16" transform="translate(1806 75)" /></clipPath><symbol viewBox="0 0 16 16" id="clock"><defs><style>#clock .b{clip-path:url(#clock_a);}</style></defs><g class="b" transform="translate(-3 -220)"><path class="a" d="M16,8a8,8,0,1,0,8,8A8,8,0,0,0,16,8Zm0,3h0a1,1,0,0,1,1,1v3.585l1.829,1.829a1,1,0,0,1,0,1.414h0a1,1,0,0,1-1.414,0L15.29,16.7a1.022,1.022,0,0,1-.252-.431l-.005-.011v-.011l-.011-.053-.005-.011v-.011l-.005-.011v-.026l-.005-.016v-.032L15,16.075V12a1,1,0,0,1,1-1Z" transform="translate(-5 212)" /></g></symbol><clipPath id="clock_a"><rect class="a" width="16" height="16" transform="translate(3 220)" /></clipPath><symbol viewBox="0 0 16 16" id="cross"><defs><style>#cross .a{clip-path:url(#cross_a);}</style></defs><g class="a"><path d="M23.943,10.633h0a1.184,1.184,0,0,1,0,1.666l-4.994,4.989,4.994,4.994a1.184,1.184,0,0,1,0,1.666h0a1.178,1.178,0,0,1-1.661,0l-4.994-4.994-4.994,4.994a1.178,1.178,0,0,1-1.661,0h0a1.184,1.184,0,0,1,0-1.666l4.994-4.994L10.633,12.3a1.184,1.184,0,0,1,0-1.666h0a1.178,1.178,0,0,1,1.661,0l4.994,4.994,4.994-4.994A1.178,1.178,0,0,1,23.943,10.633Z" transform="translate(-10.291 -10.291)" /></g></symbol><clipPath id="cross_a"><rect width="14" height="14" /></clipPath><symbol viewBox="0 0 32 32" id="e-mail">
<path d="M8.484 12.068c-0.294-0.168-0.484-0.158-0.484-1.13 0-0.489 0.347-0.878 0.773-0.941h14.455c0.426 0.063 0.773 0.452 0.773 0.941 0 0.967-0.189 0.962-0.484 1.13h0.005c-0.079 0.053-0.168 0.11-0.273 0.158-0.541 0.263-6.060 3.064-6.060 3.064s-0.541 0.284-1.177 0.268v0c-0.005 0-0.005 0-0.011 0s-0.005 0-0.011 0v0c-0.636 0.016-1.177-0.268-1.177-0.268s-5.519-2.802-6.060-3.064c-0.105-0.047-0.194-0.105-0.273-0.158h0.005zM24 13.125c0 0.026 0 0.042 0 0.058v7.748c0 0.589-0.436 1.067-0.978 1.067h-14.045c-0.541 0-0.978-0.531-0.978-1.12v-7.753c0-0.342 0.173-0.31 0.273-0.268l6.691 4.436c0.373 0.173 1.24 0.452 2.265-0.105 0 0 0 0 0.005 0l6.497-4.331c0.1-0.047 0.268-0.068 0.268 0.268zM32 16c0-8.836-7.164-16-16-16s-16 7.164-16 16c0 8.836 7.164 16 16 16s16-7.164 16-16z" />
</symbol><symbol viewBox="0 0 160 160" id="eye"><defs><style>#eye .b{clip-path:url(#eye_a);}#eye .c{fill:none;}#eye .c,#eye .d{fill-rule:evenodd;}</style></defs><g class="b" transform="translate(-118 -684)"><g transform="translate(118 684)"><path class="c" d="M0,0H160V160H0Z" /><path class="d" d="M47.962,10.959a44.23,44.23,0,0,1,20.43,4.964A46.064,46.064,0,0,1,84.43,29.671L86.912,33.3a4.87,4.87,0,0,1,0,5.919L84.43,42.654A46.064,46.064,0,0,1,68.391,56.4a44.52,44.52,0,0,1-40.859,0A46.064,46.064,0,0,1,11.494,42.654L9.012,39.026a4.87,4.87,0,0,1,0-5.919l2.482-3.437A46.065,46.065,0,0,1,27.532,15.924,44.23,44.23,0,0,1,47.962,10.959Zm0,4.964A39.98,39.98,0,0,1,80.229,32.535L82.9,36.162,80.229,39.79a39.646,39.646,0,0,1-64.535,0l-2.673-3.628,2.673-3.628A39.98,39.98,0,0,1,47.962,15.924Zm-12.6,8.783a32.261,32.261,0,0,0-14.7,11.456,33.711,33.711,0,0,0,54.606,0,32.261,32.261,0,0,0-14.7-11.456,14.292,14.292,0,0,1,1.909,6.874,14.511,14.511,0,1,1-29.021,0A14.292,14.292,0,0,1,35.36,24.706ZM43,31.58H38.606a9.141,9.141,0,0,1,4.582-8.019l2.291,3.819A4.744,4.744,0,0,0,43,31.58Zm3.628-4.773-1.146-4.2a5.639,5.639,0,0,1,2.482-.382v4.391C47.58,26.616,47.007,26.807,46.625,26.807Z" transform="translate(32.038 43.838)" /></g></g></symbol><clipPath id="eye_a"><rect class="a" width="160" height="160" transform="translate(118 684)" /></clipPath><symbol viewBox="0 0 32 32" id="fb">
<path d="M32 16c0-8.836-7.164-16-16-16s-16 7.164-16 16c0 8.836 7.164 16 16 16s16-7.164 16-16zM20 12.999l-0.3 3.001h-2.702v8h-4v-8h-1.997v-3.001h1.997v-1.603c0-1.298 0.599-3.396 3.601-3.396h3.401v2.996h-2.297c-0.442 0-0.704 0.389-0.704 0.804v1.198h3.001z" />
</symbol><symbol viewBox="0 0 265 80" id="gplay">
<path d="M183.356 21.553h-2.827v-3.637h2.904c1.009-0.031 1.865 0.779 1.88 1.803v0c-0.031 1.055-0.917 1.865-1.956 1.834v0zM12.227 0.003h240.546c6.786 0.153 12.227 5.685 12.227 12.502v54.99c0 6.908-5.594 12.502-12.487 12.502h-240.012c-6.908 0-12.502-5.594-12.502-12.502v-54.99c0-6.816 5.456-12.349 12.227-12.502zM85.419 26.887h-6.144c0.841-1.36 1.253-2.95 1.146-4.554v-4.432h5.013v8.987h-0.015zM183.677 26.887h-3.148v-3.897h3.072c0.565-0.031 1.116 0.199 1.513 0.596 0.367 0.367 0.581 0.841 0.581 1.345s-0.214 0.993-0.565 1.345c-0.367 0.413-0.886 0.642-1.437 0.611h-0.015zM96.072 27.162c-1.223 0.015-2.43-0.459-3.301-1.345-1.803-1.926-1.803-4.921 0-6.832 1.849-1.788 4.768-1.788 6.618 0 1.803 1.91 1.803 4.906 0 6.832-0.871 0.871-2.063 1.36-3.286 1.345h-0.031zM166.315 27.162c-1.238 0.015-2.43-0.459-3.301-1.345-1.788-1.926-1.788-4.906 0-6.832 1.849-1.788 4.768-1.788 6.618 0 1.803 1.91 1.803 4.906 0 6.832-0.871 0.871-2.063 1.36-3.301 1.345h-0.015zM198.761 49.246h-5.38v-8.498h5.38c2.354 0 4.249 1.895 4.249 4.249 0.015 2.338-1.895 4.249-4.234 4.249h-0.015zM169.142 53.923v0c-0.138-2.583 1.849-4.784 4.417-4.921 0.031 0 0.061 0 0.092 0 1.33-0.092 2.583 0.611 3.194 1.788l-7.703 3.133zM221.687 59.288c-1.192 0-2.965-0.565-2.965-2.109 0-1.819 2.002-2.644 3.989-2.644 1.207-0.031 2.4 0.245 3.454 0.825-0.29 2.247-2.201 3.928-4.463 3.928h-0.015zM111.508 59.288c-2.736-0.031-4.921-2.277-4.875-5.013 0-0.031 0-0.061 0-0.107-0.076-2.69 2.033-4.937 4.723-5.028 2.69-0.076 4.952 2.033 5.028 4.723 0 0.107 0 0.214 0 0.306 0.107 2.736-2.033 5.028-4.753 5.12-0.046 0.015-0.076 0.015-0.107 0.015l-0.015-0.015zM130.399 59.288c-2.736-0.031-4.921-2.277-4.875-5.013 0-0.031 0-0.061 0-0.107-0.122-2.675 1.956-4.952 4.646-5.074s4.967 1.956 5.089 4.646c0 0.138 0 0.29 0 0.428 0.107 2.736-2.033 5.028-4.753 5.12-0.031 0.015-0.061 0.015-0.107 0.015v-0.015zM149.228 59.288c-2.827-0.183-4.967-2.629-4.784-5.456 0.168-2.568 2.216-4.6 4.784-4.784 2.827 0.306 4.875 2.843 4.57 5.67-0.26 2.415-2.17 4.31-4.57 4.57zM119.792 17.9v10.454h1.559v-10.454h3.408v-1.467h-8.375v1.467h3.408zM138.82 17.9h5.67v10.454h1.559v-11.921h-8.788v11.921h1.559v-10.454zM150.389 22.974h6.098v5.38h1.559v-11.921h-1.559v5.12h-6.098v-5.12h-1.559v11.921h1.559v-5.38zM178.969 16.433v11.921h4.631c0.963 0.015 1.88-0.336 2.598-0.978 0.718-0.596 1.116-1.483 1.1-2.43 0-0.611-0.199-1.207-0.581-1.681-0.382-0.489-0.902-0.856-1.483-1.039v-0.061c0.489-0.214 0.902-0.55 1.192-0.978 0.306-0.443 0.474-0.978 0.459-1.513 0.015-0.886-0.367-1.727-1.039-2.308-0.688-0.611-1.574-0.948-2.476-0.932h-4.402zM96.087 16.173c-3.408 0.046-6.129 2.843-6.083 6.251s2.843 6.129 6.251 6.067c3.408-0.046 6.129-2.843 6.083-6.251-0.031-1.589-0.672-3.118-1.803-4.249-1.162-1.192-2.766-1.849-4.432-1.819h-0.015zM110.209 16.173c-1.681-0.046-3.301 0.596-4.509 1.773-2.43 2.476-2.43 6.434 0 8.895 1.207 1.177 2.827 1.819 4.509 1.773 0.932 0.015 1.865-0.183 2.736-0.565 0.795-0.367 1.513-0.886 2.079-1.559l-1.085-1.070c-0.917 1.1-2.292 1.742-3.729 1.727-1.253 0.031-2.461-0.443-3.362-1.299-1.819-1.941-1.819-4.952 0-6.893 0.902-0.871 2.109-1.345 3.362-1.314 1.299-0.046 2.552 0.504 3.378 1.513l1.085-1.039c-1.116-1.269-2.751-1.987-4.447-1.941h-0.015zM127.235 26.917v0l-0.397 1.421c0.382 0.168 0.779 0.26 1.192 0.26 1.314-0.031 2.445-0.886 2.843-2.124l4.616-10.056h-1.849l-2.934 6.847h-0.061l-3.011-6.847h-1.834l4.096 8.803-0.443 0.948c-0.122 0.29-0.306 0.55-0.55 0.749-0.26 0.153-0.55 0.229-0.841 0.214-0.29 0-0.565-0.076-0.81-0.214h-0.015zM166.315 16.173c-3.408 0.046-6.129 2.843-6.083 6.251s2.843 6.144 6.251 6.098c3.408-0.046 6.129-2.843 6.098-6.251-0.031-1.605-0.673-3.148-1.803-4.279-1.177-1.192-2.782-1.849-4.447-1.819h-0.015zM77.625 28.354h9.231v2.522h1.498v-3.989h-1.36v-10.454h-8.116v5.884c0.183 1.681-0.382 3.347-1.559 4.57h-1.177v3.989h1.498v-2.522h-0.015zM22.62 14.247h-0.015c1.406 1.773 2.934 3.424 4.585 4.952 5.028 5.059 13.388 13.541 17.836 18.080l2.537 2.613 3.775-3.744c2.002-2.002 3.775-3.806 3.775-3.867 0-0.122-8.1-4.661-16.094-9.094-7.749-4.31-16.185-8.941-16.384-8.941h-0.015zM57.099 33.321c-0.397 0-1.207 0.779-4.249 3.806l-4.020 4.004 3.393 3.424c1.819 1.834 3.5 3.469 3.607 3.5 0.367 0 10.5-5.533 11.050-6.037 0.26-0.29 0.474-0.642 0.596-1.024 0.351-1.039-0.183-1.972-1.635-2.827-1.039-0.627-7.55-4.249-8.589-4.799-0.046-0.031-0.092-0.046-0.153-0.031v-0.015zM159.789 62.1h3.79v-24.82h-3.79v24.82zM189.607 37.28v24.82h3.79v-9.399h5.273c4.264 0.321 7.978-2.858 8.299-7.122 0.321-4.249-2.858-7.963-7.122-8.299-0.382-0.031-0.779-0.031-1.177 0h-9.063zM209.078 62.1h3.79v-24.82h-3.79v24.82zM222.252 51.539c-3.638 0-7.305 1.91-7.305 5.578 0.168 3.194 2.889 5.655 6.083 5.487 0.076-0.015 0.138-0.015 0.214-0.015 1.926 0.107 3.76-0.81 4.83-2.43h0.122v1.91h3.653v-9.522c0-4.157-3.026-6.862-7.688-6.862-2.812-0.153-5.441 1.33-6.755 3.806l3.362 1.376c0.688-1.238 2.048-1.956 3.454-1.819 1.972-0.214 3.744 1.207 3.989 3.179v0.26c-1.223-0.627-2.583-0.963-3.958-0.948v0zM89.057 36.393c-7.244-0.245-13.312 5.426-13.556 12.67s5.426 13.312 12.67 13.556c0.29 0.015 0.596 0.015 0.886 0 3.5 0.153 6.893-1.192 9.338-3.668 2.124-2.277 3.271-5.288 3.179-8.391 0-0.749-0.061-1.498-0.199-2.247h-12.318v3.576h8.742c-0.122 1.696-0.825 3.286-1.987 4.509-1.788 1.788-4.249 2.736-6.771 2.629-2.552 0.015-5.013-0.978-6.832-2.782-3.668-3.821-3.561-9.904 0.26-13.572 3.653-3.53 9.43-3.592 13.159-0.153l2.583-2.522c-2.445-2.369-5.747-3.668-9.155-3.607v0zM111.523 45.731c-4.616-0.153-8.498 3.454-8.65 8.070-0.015 0.122-0.015 0.26-0.015 0.382-0.107 4.784 3.668 8.742 8.452 8.864s8.742-3.668 8.864-8.436c0.122-4.784-3.668-8.757-8.436-8.88-0.076 0-0.153 0-0.214 0zM130.399 45.731c-4.661 0.122-8.345 3.989-8.223 8.65 0.107 4.661 3.989 8.36 8.65 8.238 4.57-0.107 8.223-3.851 8.238-8.436 0.046-4.631-3.668-8.406-8.284-8.452-0.122 0-0.245 0-0.382 0v0zM173.544 45.731c-4.478-0.015-8.131 3.607-8.146 8.085 0 0.122 0 0.245 0 0.367-0.061 4.585 3.607 8.36 8.192 8.436 0.122 0 0.245 0 0.382 0 2.873 0.031 5.563-1.376 7.183-3.744l-2.95-1.926c-0.902 1.467-2.522 2.369-4.249 2.338-1.788 0.076-3.439-0.932-4.188-2.568l11.539-4.661-0.397-0.963c-1.116-3.133-4.050-5.258-7.367-5.365v0zM47.7 42.369c-0.092 0.046-5.548 5.395-11.585 11.386-5.578 5.517-11.34 11.294-11.34 11.386 0.397-0.168 0.795-0.367 1.162-0.581l26.089-14.259c0.229-0.122 0.443-0.229 0.642-0.336l0.031-0.015c0.795-0.397 1.223-0.627 1.284-0.948 0.061-0.428-0.535-1.024-1.956-2.43l-0.367-0.367-0.565-0.55c-1.803-1.819-3.347-3.286-3.393-3.286v0zM20.189 14.935c-0.046 0-0.107 0.031-0.138 0.076-0.229 0.29-0.413 0.596-0.565 0.932-0.153 0.413-0.229 7.672-0.229 24.285v3.225c0 21.489 0 21.489 1.070 22.192h0.015l0.168 0.107 0.657 0.474 25.294-25.218-3.255-3.271c-1.849-1.865-7.825-7.902-13.052-13.205-7.978-8.070-9.506-9.598-9.95-9.598h-0.015zM230.108 46.236l6.755 15.039-3.851 8.36h3.943l10.408-23.399h-4.218l-4.325 10.76h-0.138l-4.493-10.76h-4.081zM144.643 63.873l-3.301 1.345c1.299 3.057 4.31 5.013 7.642 4.998 5.135 0 8.192-3.286 8.192-8.803v-15.161h-3.592v1.376h-0.138c-1.177-1.238-2.812-1.926-4.524-1.895-4.677 0.092-8.391 3.928-8.314 8.589 0.092 4.554 3.76 8.223 8.314 8.299 1.712 0.061 3.362-0.642 4.524-1.91h0.138v1.223c0.336 2.384-1.33 4.585-3.714 4.921-0.29 0.031-0.596 0.046-0.886 0.031-1.926-0.031-3.637-1.223-4.34-3.011z" />
</symbol><symbol viewBox="0 0 16 16" id="heart"><defs><style>#heart .b{clip-path:url(#heart_a);}</style></defs><g class="b" transform="translate(-1805 -77)"><path class="a" d="M19.541,9.01A5.284,5.284,0,0,0,16,10.846,5.275,5.275,0,0,0,12.459,9.01,4.262,4.262,0,0,0,8,13.461c0,2.887,2.278,4.753,4.48,6.558a22.5,22.5,0,0,1,2.942,2.712.728.728,0,0,0,.556.258h.042a.728.728,0,0,0,.555-.258,22.508,22.508,0,0,1,2.943-2.712C21.721,18.214,24,16.348,24,13.46a4.262,4.262,0,0,0-4.459-4.451Z" transform="translate(1797 69.001)" /></g></symbol><clipPath id="heart_a"><rect class="a" width="16" height="16" transform="translate(1805 77)" /></clipPath><symbol viewBox="0 0 32 32" id="instagram">
<path d="M32 16c0-8.836-7.164-16-16-16s-16 7.164-16 16c0 8.836 7.164 16 16 16s16-7.164 16-16zM16 14.003c-1.104 0-1.997 0.894-1.997 1.997 0 1.099 0.894 1.997 1.997 1.997s1.997-0.899 1.997-1.997c0-1.104-0.894-1.997-1.997-1.997zM16 19.995c-2.202 0-4-1.792-4-3.995 0-2.208 1.798-4 4-4s4 1.792 4 4c0 2.202-1.798 3.995-4 3.995zM20.005 13.009c-0.552 0-1.004-0.452-1.004-1.009 0-0.552 0.452-1.004 1.004-1.004 0.557 0 1.004 0.452 1.004 1.004 0 0.557-0.447 1.009-1.004 1.009zM24 19.963c0 2.223-1.808 4.037-4.037 4.037h-7.926c-2.229 0-4.037-1.813-4.037-4.037v-7.926c0-2.229 1.808-4.037 4.037-4.037h7.926c2.229 0 4.037 1.808 4.037 4.037v7.926zM19.8 10.003h-7.601c-1.209 0-2.197 0.983-2.197 2.197v7.595c0 1.214 0.988 2.202 2.197 2.202h7.601c1.209 0 2.197-0.988 2.197-2.202v-7.595c0-1.214-0.988-2.197-2.197-2.197z" />
</symbol><symbol viewBox="0 0 16 16" id="lang-ru"><defs><style>#lang-ru .b{clip-path:url(#lang-ru_a);}#lang-ru .c{fill:#fefefe;}#lang-ru .d{fill:#f5f5f6;}#lang-ru .e{fill:#eb001b;}#lang-ru .f{fill:#005799;}</style></defs><g class="b" transform="translate(-604 -28)"><g transform="translate(596.019 20.019)"><path class="c" d="M16,7.981A8,8,0,1,1,7.981,16,7.986,7.986,0,0,1,16,7.981Z" /><path class="d" d="M15.962,9.012h.076a7.013,7.013,0,0,1,6.683,5H9.279A7.011,7.011,0,0,1,15.962,9.012Z" /><path class="e" d="M9.279,17.986H22.721a7.016,7.016,0,0,1-13.442,0Z" /><path class="f" d="M9.47,13.518H22.53a6.954,6.954,0,0,1,0,4.964H9.47a6.954,6.954,0,0,1,0-4.964Z" /></g></g></symbol><clipPath id="lang-ru_a"><rect class="a" width="16" height="16" transform="translate(604 28)" /></clipPath><symbol viewBox="0 0 16 16" id="logo"><defs><style>#logo .a{fill:#02becf;}#logo .b{clip-path:url(#logo_a);}#logo .c{fill:#cfad5d;}</style></defs><g class="b"><g transform="translate(0 0.291)"><path class="c" d="M12.519,8.81V22.026c.162.023.325.069.51.093a9.186,9.186,0,0,0,1.252.069h.232a5.573,5.573,0,0,0,2.249-.464,4.891,4.891,0,0,0,.834-.487l-.44,1.646a12.826,12.826,0,0,1-2.574.232h-5.1V10.735A4.359,4.359,0,0,0,9.2,9.043a1.348,1.348,0,0,0-1.345-.626H7.626V7.7h4.892V8.81Z" transform="translate(-7.626 -7.696)" /><path class="a" d="M14.282,8.648a6.316,6.316,0,0,0-.673.023,2.29,2.29,0,0,0-.394.046V7.7h.765a15.129,15.129,0,0,1,4.2.533,8.552,8.552,0,0,1,3.014,1.507,6.359,6.359,0,0,1,1.832,2.388,8.28,8.28,0,0,1,.6,3.2,8.574,8.574,0,0,1-.58,3.153,6.677,6.677,0,0,1-1.739,2.48,8.573,8.573,0,0,1-2.828,1.6c-.185.046-.371.116-.58.162l.44-1.646a7.921,7.921,0,0,1,.719-1.438,6.344,6.344,0,0,0,.626-1.391,8.322,8.322,0,0,0,.44-2.828,8.649,8.649,0,0,0-.417-2.782,6.434,6.434,0,0,0-1.159-2.157,5.187,5.187,0,0,0-1.786-1.368,5.714,5.714,0,0,0-2.3-.464h-.185Z" transform="translate(-7.626 -7.696)" /></g></g></symbol><clipPath id="logo_a"><rect class="a" width="16" height="16" /></clipPath><symbol viewBox="0 0 16 16" id="logo-gray"><defs><style>#logo-gray .b{clip-path:url(#logo-gray_a);}</style></defs><g class="b" transform="translate(0.001)"><g transform="translate(0 0.291)"><path class="a" d="M12.519,8.81V22.026c.162.023.325.069.51.093a9.186,9.186,0,0,0,1.252.069h.232a5.573,5.573,0,0,0,2.249-.464,4.891,4.891,0,0,0,.834-.487l-.44,1.646a12.826,12.826,0,0,1-2.574.232h-5.1V10.735A4.359,4.359,0,0,0,9.2,9.043a1.348,1.348,0,0,0-1.345-.626H7.626V7.7h4.892V8.81Z" transform="translate(-7.626 -7.696)" /><path class="a" d="M14.282,8.648a6.316,6.316,0,0,0-.673.023,2.29,2.29,0,0,0-.394.046V7.7h.765a15.129,15.129,0,0,1,4.2.533,8.552,8.552,0,0,1,3.014,1.507,6.359,6.359,0,0,1,1.832,2.388,8.28,8.28,0,0,1,.6,3.2,8.574,8.574,0,0,1-.58,3.153,6.677,6.677,0,0,1-1.739,2.48,8.573,8.573,0,0,1-2.828,1.6c-.185.046-.371.116-.58.162l.44-1.646a7.921,7.921,0,0,1,.719-1.438,6.344,6.344,0,0,0,.626-1.391,8.322,8.322,0,0,0,.44-2.828,8.649,8.649,0,0,0-.417-2.782,6.434,6.434,0,0,0-1.159-2.157,5.187,5.187,0,0,0-1.786-1.368,5.714,5.714,0,0,0-2.3-.464h-.185Z" transform="translate(-7.626 -7.696)" /></g></g></symbol><clipPath id="logo-gray_a"><rect class="a" width="16" height="16" /></clipPath><symbol viewBox="0 0 64 32" id="mastercard">
<path d="M4 0h56.001c2.2 0 4 1.799 4 4v24c0 2.201-1.799 4.001-4 4.001h-56.001c-2.2 0-4-1.799-4-4.001v-24c0-2.2 1.799-4 4-4zM32 8.926c-2.173 1.716-3.437 4.299-3.437 7.073 0 2.768 1.264 5.361 3.437 7.072 2.171-1.695 3.438-4.319 3.438-7.072 0-2.759-1.266-5.371-3.438-7.073zM37.563 7c-1.843 0-3.556 0.554-4.983 1.503 2.253 1.864 3.554 4.567 3.554 7.497 0 2.899-1.305 5.664-3.554 7.496 1.427 0.95 3.14 1.504 4.983 1.504 4.971 0 8.998-4.029 8.998-9s-4.028-9-8.998-9zM31.421 23.495c-2.244-1.798-3.555-4.63-3.555-7.496 0-2.899 1.306-5.665 3.554-7.497-1.426-0.949-3.139-1.503-4.982-1.503-4.971 0-9 4.029-9 9s4.029 9 9 9c1.843 0 3.556-0.554 4.983-1.504z" />
</symbol><symbol viewBox="0 0 64 32" id="mir">
<path d="M34.817 10.479l-3.135 6.793h-0.319v-8.271h-4.454v13.997h3.781c0.992 0 1.893-0.577 2.311-1.478l3.136-6.793h0.317v8.271h4.454v-13.997h-3.78c-0.993 0-1.894 0.575-2.312 1.478zM18.107 10.84l-1.856 6.432h-0.317l-1.856-6.432c-0.315-1.089-1.313-1.841-2.445-1.841h-4.448v14h4.453v-8.273h0.319l2.546 8.273h3.181l2.544-8.273h0.319v8.273h4.454v-14h-4.448c-1.134 0-2.131 0.751-2.445 1.841zM42.817 15.364v7.636h4.445v-4.454h4.78c2.078 0 3.839-1.329 4.495-3.181h-13.721zM52.044 9.001h-9.863c0.599 3.257 3.45 5.726 6.879 5.726h7.66c0.062-0.308 0.095-0.627 0.095-0.954 0-2.636-2.136-4.771-4.771-4.771zM4 0h56.001c2.2 0 4 1.799 4 4v24c0 2.201-1.799 4.001-4 4.001h-56.001c-2.2 0-4-1.799-4-4.001v-24c0-2.2 1.799-4 4-4z" />
</symbol><symbol viewBox="0 0 32 32" id="ok">
<path d="M32 16c0-8.836-7.164-16-16-16s-16 7.164-16 16c0 8.836 7.164 16 16 16s16-7.164 16-16zM16 8c2.208 0 4 1.787 4 4 0 2.208-1.792 4-4 4s-4-1.792-4-4c0-2.213 1.792-4 4-4zM16 9.997c1.104 0 1.997 0.894 1.997 2.003 0 1.104-0.894 1.997-1.997 1.997s-1.997-0.894-1.997-1.997c0-1.109 0.894-2.003 1.997-2.003zM19.827 22.176c0.468 0.468 0.468 1.23 0 1.698s-1.23 0.468-1.698 0l-2.129-2.129-2.15 2.15c-0.468 0.468-1.23 0.468-1.698 0s-0.468-1.23 0-1.698l2.602-2.602c-0.468-0.079-0.936-0.2-1.382-0.363-0.841-0.31-1.629-0.757-2.318-1.335-0.51-0.426-0.573-1.183-0.152-1.687 0.426-0.51 1.183-0.578 1.687-0.152 0.484 0.405 1.025 0.715 1.598 0.925 0.568 0.205 1.183 0.315 1.813 0.315s1.246-0.11 1.813-0.315c0.573-0.21 1.114-0.52 1.598-0.925 0.505-0.426 1.262-0.357 1.687 0.152 0.421 0.505 0.357 1.262-0.152 1.687-0.689 0.578-1.477 1.025-2.313 1.335-0.452 0.163-0.92 0.284-1.388 0.363l2.581 2.581z" />
</symbol><symbol viewBox="0 0 16 16" id="phone"><defs><style>#phone .b{clip-path:url(#phone_a);}</style></defs><g class="b" transform="translate(-604 -28)"><path class="a" d="M21.577,19.373c-.911-.855-1.849-1.387-2.821-.623l-.581.465c-.424.335-1.26,1.955-4.042-1.556s-1.011-3.954-.587-4.289l.584-.46c.969-.77.662-1.805.039-2.888l-.374-.653c-.626-1.08-1.329-1.8-2.3-1.035l-.526.418A4.731,4.731,0,0,0,8.985,11.8c-.44,2.209.507,4.8,2.81,7.713s4.613,4.419,6.866,4.5a4.752,4.752,0,0,0,3.419-1.238l.526-.418c.969-.767.426-1.614-.482-2.47l-.548-.515Z" transform="translate(596 19.985)" /></g></symbol><clipPath id="phone_a"><rect class="a" width="16" height="16" transform="translate(604 28)" /></clipPath><symbol viewBox="0 0 16 16" id="place"><defs><style>#place .b{clip-path:url(#place_a);}</style></defs><g class="b" transform="translate(-429 -26)"><path class="a" d="M16,8a6.066,6.066,0,0,0-6,6.017C10,20,15.994,24,15.994,24S22,20,22,14.02A6.072,6.072,0,0,0,16,8Zm0,3a3,3,0,1,1-3,3,3,3,0,0,1,3-3Z" transform="translate(420.998 17.998)" /></g></symbol><clipPath id="place_a"><rect class="a" width="16" height="16" transform="translate(429 26)" /></clipPath><symbol viewBox="0 0 16 16" id="question"><defs><style>#question .b{clip-path:url(#question_a);}</style></defs><g class="b" transform="translate(-1957 -26.999)"><path class="a" d="M16,8a8,8,0,1,0,8,8,8,8,0,0,0-8-8Zm1.642,7.719-.742.645a1.008,1.008,0,0,0-.465,1.033H15.6v-.3c0-1.47,1.4-1.722,1.4-3.893,0-.833-.313-1.2-1-1.2-.64,0-1.138.335-1,1a.921.921,0,0,1-1,1c-.869-.047-1-.39-1-1,0-1,1.069-1.769,3-1.769s3,.645,3,2.207a2.946,2.946,0,0,1-1.359,2.279ZM16,21.343A1.345,1.345,0,1,1,17.346,20,1.333,1.333,0,0,1,16,21.343Z" transform="translate(1949.001 19)" /></g></symbol><clipPath id="question_a"><rect class="a" width="16" height="16" transform="translate(1957 26.999)" /></clipPath><symbol viewBox="0 0 16 16" id="rub-money"><defs><style>#rub-money .b{clip-path:url(#rub-money_a);}</style></defs><g class="b" transform="translate(0 -331)"><path class="a" d="M17.266,15.658h1.482a1.214,1.214,0,0,1,1.3,1.122.848.848,0,0,1,0,.17,1.214,1.214,0,0,1-1.095,1.328,1.274,1.274,0,0,1-.264,0H17.266Zm1.885,4.683H17.267v-.7H18.84a3.24,3.24,0,0,0,2.2-.685,2.653,2.653,0,0,0,.792-2.013,2.592,2.592,0,0,0-.368-1.373,2.443,2.443,0,0,0-1.04-.923,3.533,3.533,0,0,0-1.557-.325H15.619V18.28h-.9v1.361h.9v.7h-.9v1.414h.9v1.559h1.647V21.757h1.881V20.343h0Zm-.866-10.065a8,8,0,1,1-8,8,8,8,0,0,1,8-8Z" transform="translate(-10.285 320.723)" /></g></symbol><clipPath id="rub-money_a"><rect class="a" width="16" height="16" transform="translate(0 331)" /></clipPath><symbol viewBox="0 0 15.998 16" id="search"><defs></defs><path class="a" d="M15,8a7,7,0,0,1,5.458,11.382l.785.785a1,1,0,0,1,1.224.148L23.555,21.4a1.526,1.526,0,0,1,0,2.152h0a1.525,1.525,0,0,1-2.151,0l-1.088-1.088a1,1,0,0,1-.148-1.224l-.785-.786A7,7,0,1,1,15,8Zm3.536,3.464A5,5,0,1,0,20,15a4.982,4.982,0,0,0-1.464-3.536Z" transform="translate(-8.001 -7.999)" /></symbol><symbol viewBox="0 0 16 16" id="star"><defs><style>#star .b{clip-path:url(#star_a);}</style></defs><g class="b" transform="translate(0 -355)"><path class="a" d="M23.945,14.088a1.1,1.1,0,0,0-.889-.753l-4.189-.606-1.877-3.8a1.15,1.15,0,0,0-1.98,0l-1.877,3.8-4.189.606a1.1,1.1,0,0,0-.609,1.883l3.032,2.96-.714,4.172a1.1,1.1,0,0,0,1.6,1.163L16,21.542l3.749,1.971a1.122,1.122,0,0,0,.512.125.044.044,0,0,0,.028,0,1.1,1.1,0,0,0,1.1-1.1,1.132,1.132,0,0,0-.083-.424l-.676-3.934,3.034-2.96A1.1,1.1,0,0,0,23.945,14.088Z" transform="translate(-7.999 346.997)" /></g></symbol><clipPath id="star_a"><rect class="a" width="16" height="16" transform="translate(0 355)" /></clipPath><symbol viewBox="0 0 32 32" id="telegram">
<path d="M32 16c0-8.836-7.164-16-16-16s-16 7.164-16 16c0 8.836 7.164 16 16 16s16-7.164 16-16zM22.975 9.314c0.557-0.216 1.13 0.268 1.009 0.857l-2.497 11.942c-0.121 0.562-0.778 0.815-1.24 0.473l-3.769-2.77-1.924 1.966c-0.336 0.342-0.92 0.205-1.067-0.258l-1.388-4.399-3.716-1.099c-0.489-0.147-0.515-0.825-0.042-1.009l14.633-5.703zM21.141 11.963c0.163-0.142-0.026-0.399-0.21-0.284l-8.032 4.978c-0.137 0.089-0.205 0.263-0.152 0.421l1.078 3.469c0.021 0.074 0.126 0.063 0.137-0.016l0.263-2.323c0.005-0.089 0.053-0.173 0.116-0.231l6.802-6.013z" />
</symbol><symbol viewBox="0 0 32 32" id="twitter">
<path d="M32 16c0-8.836-7.164-16-16-16s-16 7.164-16 16c0 8.836 7.164 16 16 16s16-7.164 16-16zM8 21.046v0c2.833 0.426 4.831-1.377 4.831-1.377-2.528-0.2-3.022-2.297-3.022-2.297 0.888 0.152 1.451-0.063 1.451-0.063-2.844-0.662-2.602-3.264-2.602-3.264 0.657 0.394 1.419 0.426 1.419 0.426-2.507-2.208-0.936-4.352-0.936-4.352 2.628 3.185 6.497 3.401 6.749 3.411-0.058-0.237-0.084-0.489-0.084-0.746 0-1.813 1.472-3.285 3.285-3.285 0.946 0 1.803 0.399 2.402 1.041 0.163-0.047 0.326-0.095 0.478-0.147 0.936-0.31 1.598-0.668 1.598-0.668-0.158 0.962-1.346 1.771-1.43 1.829-0.005 0-0.005 0-0.005 0s0.005 0 0.005 0c0.92-0.089 1.861-0.484 1.861-0.484-0.284 0.599-1.44 1.524-1.629 1.671 0.005 0.131 0.011 0.258 0.011 0.389 0 5.172-4.194 9.367-9.372 9.367-1.84 0-3.558-0.531-5.009-1.451z" />
</symbol><symbol viewBox="0 0 32 32" id="viber">
<path d="M32 16c0-8.836-7.164-16-16-16s-16 7.164-16 16c0 8.836 7.164 16 16 16s16-7.164 16-16zM17.682 14.702c-0.305 0.011-0.242-0.289-0.3-0.526-0.074-0.3-0.263-0.526-0.562-0.61-0.116-0.032-0.231-0.026-0.347-0.053-0.289-0.068-0.2-0.447 0.063-0.426 0.725 0.053 1.246 0.426 1.319 1.283 0.011 0.137 0.005 0.326-0.173 0.331-0.152 0.005 0.074 0 0 0zM16.005 11.059c1.871 0.053 3.406 1.298 3.737 3.149 0.058 0.315 0.079 0.636 0.1 0.957 0.026 0.326-0.41 0.378-0.436 0.005-0.021-0.268-0.032-0.536-0.068-0.799-0.194-1.393-1.309-2.549-2.696-2.796-0.21-0.037-0.421-0.047-0.636-0.068-0.131-0.016-0.305-0.021-0.336-0.189-0.026-0.137 0.095-0.247 0.226-0.258 0.037 0 0.074 0 0.11 0 1.871 0.053-0.037 0 0 0zM18.828 14.88c-0.047 0.184-0.331 0.21-0.399 0.021-0.063-0.179 0.053-0.699-0.305-1.319-0.357-0.61-0.92-0.941-1.598-1.051-0.263-0.042-0.531-0.011-0.515-0.273 0.005-0.121 0.095-0.205 0.226-0.2 0.888 0.053 1.65 0.431 2.118 1.083 0.273 0.384 0.394 0.762 0.452 1.198 0.021 0.147 0.058 0.405 0.021 0.541zM17.766 19.049c-1.435-0.594-2.749-1.361-3.795-2.534-0.589-0.668-1.056-1.424-1.451-2.223-0.184-0.373-0.342-0.767-0.499-1.162-0.147-0.352 0.068-0.72 0.294-0.988 0.21-0.252 0.484-0.447 0.778-0.589 0.231-0.11 0.463-0.047 0.631 0.147 0.363 0.426 0.699 0.867 0.967 1.361 0.168 0.3 0.121 0.668-0.179 0.873-0.074 0.053-0.142 0.11-0.21 0.163-0.058 0.053-0.116 0.1-0.158 0.168-0.074 0.121-0.079 0.268-0.032 0.399 0.373 1.025 1.004 1.819 2.034 2.25 0.163 0.068 0.331 0.147 0.52 0.126 0.315-0.037 0.421-0.389 0.641-0.568s0.499-0.184 0.731-0.032c0.237 0.147 0.463 0.305 0.689 0.468 0.226 0.158 0.447 0.315 0.652 0.494 0.194 0.173 0.263 0.399 0.152 0.636-0.205 0.431-0.499 0.788-0.925 1.020-0.294 0.158-0.526 0.121-0.841-0.011zM23.39 11.853c0.463 1.929 0.484 4.436-0.005 6.371-0.389 1.524-2.076 3.154-3.616 3.464-1.251 0.258-2.512 0.357-3.769 0.357-0.373 0-0.741-0.011-1.109-0.032l-1.708 1.777c-0.426 0.436-1.167 0.142-1.167-0.468v-1.687c-1.44-0.41-3.075-1.95-3.406-3.432-0.457-2.039-0.484-4.336 0.005-6.371 0.363-1.509 2.097-3.175 3.616-3.469 2.449-0.473 5.109-0.505 7.553 0.005 1.577 0.326 3.233 1.924 3.606 3.485zM22.039 17.898c0.436-1.903 0.436-3.842 0-5.74-0.226-0.993-1.524-2.234-2.544-2.434-2.313-0.468-4.678-0.468-6.996 0-1.020 0.2-2.313 1.44-2.539 2.434-0.436 1.898-0.436 3.837 0 5.74 0.226 0.988 1.524 2.208 2.539 2.434 0.047 0.011 0.079 0.042 0.079 0.095v2.791c0 0.137 0.173 0.205 0.268 0.105l1.325-1.361c0 0 1.056-1.083 1.251-1.277 0.016-0.021 0.042-0.032 0.068-0.026 1.34 0.037 2.681-0.053 4.005-0.326 1.020-0.21 2.318-1.445 2.544-2.434z" />
</symbol><symbol viewBox="0 0 64 32" id="visa">
<path d="M4 0h56.001c2.2 0 4 1.799 4 4v24c0 2.201-1.799 4.001-4 4.001h-56.001c-2.2 0-4-1.799-4-4.001v-24c0-2.2 1.799-4 4-4zM15.053 9.176h-6.013l-0.037 0.302c1.456 0.354 2.761 0.864 3.907 1.5l3.312 11.865h3.939l5.863-13.648h-3.94l-3.657 9.312-1.695-8.162c-0.226-0.867-0.867-1.13-1.679-1.169zM47.401 17.998c0.301-0.773 1.489-3.808 1.489-3.808-0.037 0.039 0.302-0.791 0.491-1.3l0.245 1.168c0 0 0.715 3.262 0.867 3.94h-3.091zM52.001 9.195h-2.886c-0.886 0-1.564 0.245-1.96 1.132l-5.524 12.535h3.903c0 0 0.641-1.697 0.791-2.055h4.769c0.114 0.471 0.453 2.055 0.453 2.055h3.45l-2.996-13.667zM42.443 9.515c-0.735-0.263-1.905-0.565-3.337-0.565-3.695 0-6.278 1.847-6.296 4.506-0.018 1.961 1.847 3.053 3.261 3.714 1.451 0.677 1.942 1.093 1.923 1.695 0 0.923-1.151 1.34-2.225 1.34-1.49 0-2.281-0.208-3.505-0.718l-0.492-0.226-0.509 3.054c0.867 0.396 2.47 0.717 4.147 0.735 3.921 0 6.446-1.828 6.485-4.675 0.019-1.545-0.98-2.732-3.129-3.712-1.301-0.623-2.092-1.038-2.092-1.679 0-0.584 0.678-1.188 2.129-1.188 1.225-0.018 2.111 0.245 2.791 0.528l0.339 0.152 0.509-2.96zM25.194 22.842h3.732l2.338-13.667h-3.732l-2.338 13.667z" />
</symbol><symbol viewBox="0 0 32 32" id="vk">
<path d="M32 16c0-8.836-7.164-16-16-16s-16 7.164-16 16c0 8.836 7.164 16 16 16s16-7.164 16-16zM11.511 12.636c0.447 1.104 1.009 2.145 1.756 3.075 0.1 0.126 0.226 0.237 0.357 0.326 0.189 0.131 0.373 0.084 0.447-0.131 0.084-0.231 0.163-0.699 0.163-0.941 0.016-0.631 0-1.046-0.032-1.677-0.026-0.405-0.168-0.757-0.762-0.867-0.184-0.032-0.2-0.184-0.084-0.331 0.247-0.315 0.589-0.368 0.962-0.384 0.599-0.037 1.204-0.011 1.803 0 0.247 0 0.494 0.021 0.736 0.074 0.315 0.068 0.484 0.289 0.536 0.594 0.026 0.163 0.037 0.326 0.037 0.484-0.016 0.689-0.053 1.377-0.058 2.071-0.005 0.268 0.016 0.547 0.074 0.809 0.079 0.368 0.331 0.457 0.589 0.194 0.321-0.336 0.61-0.715 0.878-1.104 0.489-0.699 0.852-1.466 1.167-2.26 0.163-0.41 0.284-0.499 0.725-0.499 0.825 0 1.656 0 2.481 0 0.147 0 0.3 0.016 0.442 0.058 0.221 0.074 0.31 0.258 0.258 0.489-0.121 0.547-0.415 1.009-0.731 1.451-0.505 0.715-1.035 1.414-1.556 2.118-0.063 0.089-0.126 0.189-0.179 0.284-0.194 0.352-0.179 0.547 0.105 0.841 0.447 0.463 0.93 0.894 1.367 1.372 0.315 0.347 0.61 0.725 0.857 1.12 0.321 0.499 0.121 0.972-0.468 1.056-0.373 0.053-2.197 0-2.292 0-0.489-0.005-0.915-0.173-1.262-0.505-0.384-0.373-0.736-0.778-1.104-1.162-0.11-0.116-0.231-0.231-0.357-0.326-0.3-0.231-0.599-0.179-0.741 0.173-0.121 0.305-0.221 1.104-0.226 1.172-0.026 0.357-0.252 0.589-0.652 0.61-1.156 0.063-2.276-0.068-3.317-0.625-0.888-0.473-1.593-1.146-2.202-1.924-0.972-1.24-1.74-2.602-2.439-4.005-0.037-0.068-0.746-1.577-0.762-1.65-0.063-0.237-0.005-0.468 0.194-0.547 0.126-0.047 2.465 0 2.502 0.005 0.373 0.016 0.631 0.173 0.788 0.562z" />
</symbol><symbol viewBox="0 0 32 32" id="watsapp">
<path d="M32 16c0-8.836-7.164-16-16-16s-16 7.164-16 16c0 8.836 7.164 16 16 16s16-7.164 16-16zM8 24.011l1.12-3.979c-0.72-1.225-1.099-2.618-1.099-4.053 0-4.405 3.585-7.989 7.989-7.989s7.989 3.585 7.989 7.989c0 4.41-3.585 7.989-7.989 7.989-1.372 0-2.717-0.347-3.905-1.014l-4.105 1.056zM12.315 21.498l0.242 0.152c1.041 0.631 2.234 0.967 3.453 0.967 3.658 0 6.633-2.98 6.633-6.639s-2.975-6.633-6.633-6.633c-3.658 0-6.633 2.975-6.633 6.633 0 1.277 0.363 2.512 1.046 3.579l0.163 0.258-0.641 2.292 2.371-0.61zM13.766 12.263c0.1 0.005 0.194 0.068 0.231 0.163l0.757 1.766c0.042 0.095 0.021 0.205-0.042 0.284l-0.662 0.757c-0.053 0.063-0.058 0.152-0.021 0.221 0.862 1.672 2.444 2.328 2.912 2.497 0.079 0.026 0.168 0 0.221-0.068l0.689-0.888c0.079-0.1 0.21-0.131 0.326-0.079l1.75 0.804c0.116 0.053 0.179 0.179 0.152 0.3l-0.084 0.389c-0.089 0.436-0.352 0.82-0.725 1.062-0.478 0.305-1.093 0.452-1.871 0.231-2.428-0.683-3.8-2.292-4.536-3.296s-1.020-2.008-0.836-2.828c0.121-0.552 0.526-0.972 0.778-1.188 0.121-0.11 0.279-0.163 0.442-0.152l0.52 0.026z" />
</symbol><symbol viewBox="0 0 32 32" id="youtube">
<path d="M32 16c0-8.836-7.164-16-16-16s-16 7.164-16 16c0 8.836 7.164 16 16 16s16-7.164 16-16zM12.999 13.056l5.887 2.944-5.887 2.944v-5.887zM21.65 9.992c1.304 0.032 2.35 1.099 2.35 2.407v7.201c0 1.304-1.046 2.376-2.35 2.402-3.769 0.079-7.532 0.079-11.301 0-1.304-0.026-2.35-1.099-2.35-2.402v-7.201c0-1.309 1.046-2.376 2.35-2.407 3.769-0.079 7.532-0.079 11.301 0z" />
</symbol></defs></svg>