<svg xmlns="http://www.w3.org/2000/svg" xmlns:xlink="http://www.w3.org/1999/xlink" viewBox="0 0 16 16"><defs><style>.a{fill:#7f7f7f;}.b{clip-path:url(#a);}</style><clipPath id="a"><rect class="a" width="16" height="16" transform="translate(1492 77)"/></clipPath></defs><g class="b" transform="translate(-1492 -77)"><path class="a" d="M18.475,17.881a11.321,11.321,0,0,1-1.091,2.071,8.7,8.7,0,0,0-1.054-1.841,2.3,2.3,0,0,0,1.475-.8,1.706,1.706,0,0,1,.079-1.024h-.006a6.618,6.618,0,0,0,1.8-4.4A3.582,3.582,0,0,0,16,8a3.575,3.575,0,0,0-3.663,3.892,6.594,6.594,0,0,0,1.8,4.408,1.279,1.279,0,0,1,.037.982,2.331,2.331,0,0,0,1.5.828,8.829,8.829,0,0,0-1.052,1.848,11.415,11.415,0,0,1-1.111-2.105l0-.005C11.486,18.607,9,19.935,9,21.246v.5C9,23.583,12.713,24,16,24s7-.417,7-2.249v-.5c0-1.331-2.426-2.629-4.526-3.366Z" transform="translate(1483.999 69.001)"/></g></svg>