<svg xmlns="http://www.w3.org/2000/svg" xmlns:xlink="http://www.w3.org/1999/xlink" viewBox="0 0 24 24"><defs><style>.a{fill:#7f7f7f;}.b{clip-path:url(#a);}</style><clipPath id="a"><rect class="a" width="24" height="24" transform="translate(706 80)"/></clipPath></defs><g class="b" transform="translate(-706 -80)"><path class="a" d="M13.5,22.5h21A1.5,1.5,0,0,1,36,24v.093a1.5,1.5,0,0,1-1.5,1.5h-21a1.5,1.5,0,0,1-1.5-1.5V24a1.5,1.5,0,0,1,1.5-1.5Zm0-7.5h21A1.5,1.5,0,0,1,36,16.5v.093a1.5,1.5,0,0,1-1.5,1.5h-21a1.5,1.5,0,0,1-1.5-1.5V16.5A1.5,1.5,0,0,1,13.5,15Z" transform="translate(694.001 71.955)"/></g></svg>