<svg xmlns="http://www.w3.org/2000/svg" xmlns:xlink="http://www.w3.org/1999/xlink" viewBox="0 0 16 16"><defs><style>.a{fill:#7f7f7f;}.b{clip-path:url(#a);}</style><clipPath id="a"><rect class="a" width="16" height="16" transform="translate(1806 75)"/></clipPath></defs><g class="b" transform="translate(-1806 -75)"><path class="a" d="M17.336,16a1.594,1.594,0,0,1,1.642,1.68c0,1.069-.84,1.757-1.68,2.444a8.776,8.776,0,0,0-1.069.993.332.332,0,0,1-.229.115h0a.328.328,0,0,1-.229-.115,8.931,8.931,0,0,0-1.069-.993c-.84-.687-1.68-1.375-1.68-2.444A1.594,1.594,0,0,1,14.664,16,2.054,2.054,0,0,1,16,16.686,2.056,2.056,0,0,1,17.337,16ZM13.479,8.973v2.291a1.694,1.694,0,0,1-1.718,1.718h-.038a1.77,1.77,0,0,1-1.222-.5h0a1.765,1.765,0,0,1-.5-1.222V8.973a2,2,0,0,0-2.024,1.986V21.995a2,2,0,0,0,2.024,1.986H21.995a1.972,1.972,0,0,0,1.986-1.986V10.959a1.972,1.972,0,0,0-1.986-1.986v2.291a1.694,1.694,0,0,1-1.718,1.718h-.038a1.77,1.77,0,0,1-1.222-.5h0a1.77,1.77,0,0,1-.5-1.222V8.973H13.48ZM10.157,14.51H21.842a.669.669,0,0,1,.649.649v6.683a.668.668,0,0,1-.649.649H10.157a.668.668,0,0,1-.649-.649V15.159A.669.669,0,0,1,10.157,14.51Zm1.565-6.53h.038a.76.76,0,0,1,.726.764v2.52a.752.752,0,0,1-.726.726h-.038A.726.726,0,0,1,11,11.264V8.744a.735.735,0,0,1,.726-.764Zm8.515,0h.038A.76.76,0,0,1,21,8.744v2.52a.752.752,0,0,1-.726.726h-.038a.726.726,0,0,1-.726-.726V8.744a.734.734,0,0,1,.726-.764Z" transform="translate(1798.019 67.02)"/></g></svg>