<svg xmlns="http://www.w3.org/2000/svg" xmlns:xlink="http://www.w3.org/1999/xlink" viewBox="0 0 16 16"><defs><style>.a{fill:#999;}.b{clip-path:url(#a);}</style><clipPath id="a"><rect class="a" width="16" height="16" transform="translate(3 220)"/></clipPath></defs><g class="b" transform="translate(-3 -220)"><path class="a" d="M16,8a8,8,0,1,0,8,8A8,8,0,0,0,16,8Zm0,3h0a1,1,0,0,1,1,1v3.585l1.829,1.829a1,1,0,0,1,0,1.414h0a1,1,0,0,1-1.414,0L15.29,16.7a1.022,1.022,0,0,1-.252-.431l-.005-.011v-.011l-.011-.053-.005-.011v-.011l-.005-.011v-.026l-.005-.016v-.032L15,16.075V12a1,1,0,0,1,1-1Z" transform="translate(-5 212)"/></g></svg>