<svg xmlns="http://www.w3.org/2000/svg" xmlns:xlink="http://www.w3.org/1999/xlink" viewBox="0 0 16 16"><defs><style>.a{fill:#7f7f7f;}.b{clip-path:url(#a);}</style><clipPath id="a"><rect class="a" width="16" height="16" transform="translate(1805 77)"/></clipPath></defs><g class="b" transform="translate(-1805 -77)"><path class="a" d="M19.541,9.01A5.284,5.284,0,0,0,16,10.846,5.275,5.275,0,0,0,12.459,9.01,4.262,4.262,0,0,0,8,13.461c0,2.887,2.278,4.753,4.48,6.558a22.5,22.5,0,0,1,2.942,2.712.728.728,0,0,0,.556.258h.042a.728.728,0,0,0,.555-.258,22.508,22.508,0,0,1,2.943-2.712C21.721,18.214,24,16.348,24,13.46a4.262,4.262,0,0,0-4.459-4.451Z" transform="translate(1797 69.001)"/></g></svg>