<svg xmlns="http://www.w3.org/2000/svg" xmlns:xlink="http://www.w3.org/1999/xlink" viewBox="0 0 16 16"><defs><style>.a{fill:#fff;}.b{clip-path:url(#a);}.c{fill:#fefefe;}.d{fill:#f5f5f6;}.e{fill:#eb001b;}.f{fill:#005799;}</style><clipPath id="a"><rect class="a" width="16" height="16" transform="translate(604 28)"/></clipPath></defs><g class="b" transform="translate(-604 -28)"><g transform="translate(596.019 20.019)"><path class="c" d="M16,7.981A8,8,0,1,1,7.981,16,7.986,7.986,0,0,1,16,7.981Z"/><path class="d" d="M15.962,9.012h.076a7.013,7.013,0,0,1,6.683,5H9.279A7.011,7.011,0,0,1,15.962,9.012Z"/><path class="e" d="M9.279,17.986H22.721a7.016,7.016,0,0,1-13.442,0Z"/><path class="f" d="M9.47,13.518H22.53a6.954,6.954,0,0,1,0,4.964H9.47a6.954,6.954,0,0,1,0-4.964Z"/></g></g></svg>