<svg xmlns="http://www.w3.org/2000/svg" xmlns:xlink="http://www.w3.org/1999/xlink" viewBox="0 0 348 120"><defs><style>.a,.c{fill:#fff;}.b{clip-path:url(#a);}.c{opacity:0.7;}.d{filter:url(#h);}.e{filter:url(#f);}.f{filter:url(#d);}.g{filter:url(#b);}</style><clipPath id="a"><rect class="a" width="348" height="120"/></clipPath><filter id="b" x="-11.297" y="-8" width="101.765" height="144" filterUnits="userSpaceOnUse"><feOffset dy="4" input="SourceAlpha"/><feGaussianBlur stdDeviation="4" result="c"/><feFlood flood-opacity="0.302"/><feComposite operator="in" in2="c"/><feComposite in="SourceGraphic"/></filter><filter id="d" x="32.349" y="-8" width="104.908" height="140.872" filterUnits="userSpaceOnUse"><feOffset dy="4" input="SourceAlpha"/><feGaussianBlur stdDeviation="4" result="e"/><feFlood flood-opacity="0.302"/><feComposite operator="in" in2="e"/><feComposite in="SourceGraphic"/></filter><filter id="f" x="148.268" y="59.172" width="211.029" height="62.8" filterUnits="userSpaceOnUse"><feOffset dy="4" input="SourceAlpha"/><feGaussianBlur stdDeviation="4" result="g"/><feFlood flood-opacity="0.302"/><feComposite operator="in" in2="g"/><feComposite in="SourceGraphic"/></filter><filter id="h" x="146.88" y="6.021" width="207.017" height="80.782" filterUnits="userSpaceOnUse"><feOffset dy="4" input="SourceAlpha"/><feGaussianBlur stdDeviation="4" result="i"/><feFlood flood-opacity="0.302"/><feComposite operator="in" in2="i"/><feComposite in="SourceGraphic"/></filter></defs><g class="b"><g transform="translate(0.703 0)"><g class="g" transform="matrix(1, 0, 0, 1, -0.7, 0)"><path class="a" d="M57.454,28.555V131.465c1.223.24,2.551.48,4,.728a71.092,71.092,0,0,0,9.647.54h1.815a41.575,41.575,0,0,0,17.457-3.638,39.413,39.413,0,0,0,6.662-3.833l-3.473,12.956a105.961,105.961,0,0,1-20.1,1.793H33.831V43.641q0-8.181-2.281-13.181-2.262-4.985-10.45-5H19.27V20.01H57.454v8.545Z" transform="translate(-18.57 -20.01)"/></g><g class="f" transform="matrix(1, 0, 0, 1, -0.7, 0)"><path class="c" d="M42,27.287c-1.83,0-3.548.06-5.191.18-1.058.075-2.056.18-2.993.3V20.01h5.814q18.725,0,32.731,4.089T95.806,35.831A47.96,47.96,0,0,1,110,54.459a62.461,62.461,0,0,1,4.726,24.824,65.061,65.061,0,0,1-4.546,24.644A51.538,51.538,0,0,1,96.714,123.1a62.628,62.628,0,0,1-22.086,12.453c-1.418.48-2.866.923-4.366,1.328l3.428-12.806c.758-2.806,2.206-5.649,5.589-11.29a52.947,52.947,0,0,0,4.891-10.78,69.02,69.02,0,0,0,3.278-22,69.3,69.3,0,0,0-3.188-21.725,49.042,49.042,0,0,0-9-16.639A39.87,39.87,0,0,0,61.35,31a42.4,42.4,0,0,0-17.907-3.713H42Z" transform="translate(10.53 -20.01)"/></g><g class="e" transform="matrix(1, 0, 0, 1, -0.7, 0)"><path class="c" d="M88.257,45.724c-.54,0-1.073.015-1.568.06a11.212,11.212,0,0,0-1.358.165c-.45.075-.848.12-1.223.165V77.487c.375.075.773.15,1.223.21a19.62,19.62,0,0,0,2.926.18h.555a12.689,12.689,0,0,0,5.326-1.118,12.152,12.152,0,0,0,4.209-3.188,15.105,15.105,0,0,0,2.761-5.071,23.122,23.122,0,0,0,.03-13.338,14.906,14.906,0,0,0-2.746-5.071,12.243,12.243,0,0,0-4.246-3.248,12.857,12.857,0,0,0-5.454-1.133h-.45ZM87.544,43.5a35.523,35.523,0,0,1,9.962,1.253,20.284,20.284,0,0,1,7.157,3.578,14.564,14.564,0,0,1,4.321,5.679,18.855,18.855,0,0,1,1.448,7.562,19.862,19.862,0,0,1-1.388,7.517,15.846,15.846,0,0,1-4.1,5.844A18.8,18.8,0,0,1,98.2,78.725a28.68,28.68,0,0,1-9.227,1.358H76.9V50.72a9.711,9.711,0,0,0-.7-4.029c-.465-1.013-1.523-1.523-3.188-1.523h-.555V43.511H87.544Zm29.265,0h7.2V72.881a9.834,9.834,0,0,0,.7,4.014c.465,1.028,1.523,1.523,3.188,1.523h.555v1.658H121.79a7.418,7.418,0,0,1-2.4-.33,2.975,2.975,0,0,1-1.553-1.163,5.173,5.173,0,0,1-.8-2.221,22.356,22.356,0,0,1-.225-3.488V43.5Zm16.121,6.489a14.156,14.156,0,0,0-2.566-4.351,5.017,5.017,0,0,0-2.911-1.478v-1.1c.15,0,.51-.015,1.088-.06.555-.03.983-.045,1.238-.045a22.588,22.588,0,0,1,2.971.21,9.589,9.589,0,0,1,2.956.953,10.01,10.01,0,0,1,2.746,2.1,12.775,12.775,0,0,1,2.3,3.773l8.785,20.728L160,46.429a14.924,14.924,0,0,0,2.086,1.583L148.07,80.638h-2.221L132.923,49.993Zm42.806,1.163V72.881a9.856,9.856,0,0,0,.683,4.014c.465,1.028,1.523,1.523,3.2,1.523h.54v1.658h-6.647a7.453,7.453,0,0,1-2.416-.33,2.974,2.974,0,0,1-1.553-1.163,5.376,5.376,0,0,1-.8-2.221,22.355,22.355,0,0,1-.225-3.488V50.525a31.806,31.806,0,0,0,3.248.435c1.253.12,2.4.18,3.458.18h.51ZM212.481,69V43.5h2.761V80.255h-2.551l-23.5-27.6V80.09h-2.776V50.165a8.179,8.179,0,0,0-.06-1.058,15.54,15.54,0,0,0,1.89-1.028,14.836,14.836,0,0,0,2.7-2.161c.24-.255.465-.51.7-.773a7.994,7.994,0,0,1,1.763,1.688l19.07,22.161Zm43.458,8.485a24.2,24.2,0,0,1-6.827,2.821,33.2,33.2,0,0,1-7.869.893,20.152,20.152,0,0,1-7.99-1.553,19.316,19.316,0,0,1-10.473-10.555,21.532,21.532,0,0,1-.18-15.281,17.415,17.415,0,0,1,3.713-5.979,16.987,16.987,0,0,1,5.754-4,18.994,18.994,0,0,1,7.517-1.433,22.745,22.745,0,0,1,8.53,1.358,12.848,12.848,0,0,1,4.876,3.128,4.928,4.928,0,0,1,.833,1.658,11.885,11.885,0,0,1,.42,1.98,18.922,18.922,0,0,1,.165,2.071c.015.713.03,1.373.03,2.01h-1.658c-.713-3.413-2.01-5.874-3.878-7.412a11.853,11.853,0,0,0-7.652-2.3,10.918,10.918,0,0,0-5.634,1.358,11.308,11.308,0,0,0-3.758,3.638,16.282,16.282,0,0,0-2.146,5.221,28.518,28.518,0,0,0-.668,6.129A31.755,31.755,0,0,0,230,69.7a14.973,14.973,0,0,0,2.6,5.469,9.586,9.586,0,0,0,3.878,2.926,12.85,12.85,0,0,0,4.771.893,20.677,20.677,0,0,0,4.276-.39,15.281,15.281,0,0,0,3.218-1.058V67.682a8.141,8.141,0,0,1,.345-2.356,4.637,4.637,0,0,1,1.493-2.161,8.986,8.986,0,0,1,3.248-1.613,20.4,20.4,0,0,1,5.664-.638V62.3a2.93,2.93,0,0,0-2.716,1.388,7.561,7.561,0,0,0-.833,3.878v9.917Z" transform="translate(87.81 24.77)"/></g><g class="d" transform="matrix(1, 0, 0, 1, -0.7, 0)"><path class="a" d="M83.871,65.621h23.436v2.641H77.929V32.613a11.466,11.466,0,0,0-.833-4.786c-.54-1.208-1.808-1.815-3.788-1.815H72V24.684h5.934a11.776,11.776,0,0,1,2.866.3,3.415,3.415,0,0,1,1.86,1.178,5.718,5.718,0,0,1,.953,2.446,24.2,24.2,0,0,1,.27,4v33Zm35.566,2.641H113.5V45.149a11.761,11.761,0,0,0-.833-4.786c-.555-1.208-1.815-1.815-3.8-1.815h-1.313V37.234H113.5a11.941,11.941,0,0,1,2.866.285,3.4,3.4,0,0,1,1.845,1.193,5.465,5.465,0,0,1,.968,2.446,26.014,26.014,0,0,1,.255,3.984V68.255Zm-.39-37.959a2.838,2.838,0,0,1-.833,2.176,3.049,3.049,0,0,1-2.206.8,3.318,3.318,0,0,1-2.611-1.268,4.365,4.365,0,0,1-1.088-2.956,2.92,2.92,0,0,1,.818-2.191,3.1,3.1,0,0,1,2.221-.788,3.349,3.349,0,0,1,2.611,1.253,4.412,4.412,0,0,1,1.088,2.971Zm10.69,14.846a11.513,11.513,0,0,0-.833-4.786c-.54-1.208-1.815-1.815-3.788-1.815H123.8V37.234h5.934a8.012,8.012,0,0,1,3.788.7,3.885,3.885,0,0,1,1.83,1.95h.33a11.842,11.842,0,0,1,3.428-2.281,12,12,0,0,1,5.146-1.028,17.191,17.191,0,0,1,4.119.5,8.742,8.742,0,0,1,3.593,1.845,9.637,9.637,0,0,1,2.551,3.668,15.494,15.494,0,0,1,.953,5.874v19.8h-5.934v-19.8a11.822,11.822,0,0,0-.638-4.149,7.851,7.851,0,0,0-1.643-2.776,6.03,6.03,0,0,0-2.311-1.523,8.051,8.051,0,0,0-2.671-.45,6.679,6.679,0,0,0-3.668,1.058,13.1,13.1,0,0,0-2.926,2.446V68.277h-5.949V45.164ZM163.6,46.477a10.408,10.408,0,0,1,.983-4.756,8.113,8.113,0,0,1,2.686-3.038,11.2,11.2,0,0,1,3.983-1.613,23.3,23.3,0,0,1,4.891-.5h12.2v1.643l-4.291.668v.33a8.8,8.8,0,0,1,3.308,2.866,7.459,7.459,0,0,1,1.313,4.4,10.408,10.408,0,0,1-.983,4.756,8.207,8.207,0,0,1-2.671,3.038,11.683,11.683,0,0,1-4,1.613,23.262,23.262,0,0,1-4.876.5q-6.932,0-6.932,2.311T176.144,61a25.322,25.322,0,0,1,5.6.593,14.689,14.689,0,0,1,4.621,1.815,9.218,9.218,0,0,1,3.143,3.173,8.932,8.932,0,0,1,1.148,4.651,9.32,9.32,0,0,1-1.118,4.786,8.936,8.936,0,0,1-3.068,3.173,13.341,13.341,0,0,1-4.591,1.748,31.7,31.7,0,0,1-11.493,0,13.615,13.615,0,0,1-4.591-1.748,9.067,9.067,0,0,1-3.068-3.173,9.472,9.472,0,0,1-1.118-4.786,7.381,7.381,0,0,1,2.146-5.4,12.926,12.926,0,0,1,5.116-3.173,6.459,6.459,0,0,1-1.83-1.478,3.73,3.73,0,0,1-.818-2.476,3.117,3.117,0,0,1,.788-2.311,14.333,14.333,0,0,1,1.523-1.328,9.063,9.063,0,0,1-3.473-3.173,9.4,9.4,0,0,1-1.478-5.4Zm9.572,16.834a9.725,9.725,0,0,0-4.059,2.836,7.591,7.591,0,0,0-1.553,5.071c0,2.641.8,4.576,2.416,5.784a11.42,11.42,0,0,0,12.333,0c1.613-1.208,2.416-3.143,2.416-5.784,0-4.4-2.641-6.932-7.929-7.577l-3.623-.33Zm9.572-16.834c0-2.641-.638-4.576-1.921-5.784a6.544,6.544,0,0,0-4.681-1.815,8.381,8.381,0,0,0-2.581.39,5.428,5.428,0,0,0-2.086,1.3,6.506,6.506,0,0,0-1.418,2.341,10.692,10.692,0,0,0-.525,3.563,10.692,10.692,0,0,0,.525,3.563,6.506,6.506,0,0,0,1.418,2.341,5.137,5.137,0,0,0,2.086,1.283,7.954,7.954,0,0,0,2.581.405,7.862,7.862,0,0,0,2.566-.405,5.119,5.119,0,0,0,2.086-1.283,6.505,6.505,0,0,0,1.418-2.341,10.692,10.692,0,0,0,.525-3.563Zm40.188,21.785H219.64l-2.311-2.641H217a12.713,12.713,0,0,1-3.428,2.281,12.047,12.047,0,0,1-5.146,1.013,18.006,18.006,0,0,1-4.134-.48,8.6,8.6,0,0,1-3.593-1.86,9.391,9.391,0,0,1-2.536-3.653,15.212,15.212,0,0,1-.968-5.889V45.149a11.782,11.782,0,0,0-.818-4.786c-.555-1.208-1.83-1.815-3.8-1.815h-.668V37.234h5.281a11.857,11.857,0,0,1,2.866.285,3.5,3.5,0,0,1,1.86,1.193,5.293,5.293,0,0,1,.953,2.446,24.005,24.005,0,0,1,.27,3.984V57.024a12.207,12.207,0,0,0,.623,4.194,7.577,7.577,0,0,0,1.658,2.731,5.835,5.835,0,0,0,2.311,1.523,7.932,7.932,0,0,0,2.671.465,6.792,6.792,0,0,0,3.653-1.058,14.05,14.05,0,0,0,2.941-2.446V37.219h5.934V68.247Zm26.152-15.191H247.1a14.194,14.194,0,0,0-7.757,1.815,5.493,5.493,0,0,0-2.806,4.786,6.913,6.913,0,0,0,.525,2.776,5.954,5.954,0,0,0,1.388,1.98,5.128,5.128,0,0,0,1.98,1.163,7.685,7.685,0,0,0,2.371.36,5.723,5.723,0,0,0,3.863-1.223,13.065,13.065,0,0,0,2.416-2.746v-8.9Zm2.641,15.191-2.311-2.971h-.33a10.274,10.274,0,0,1-3.248,2.446,12.9,12.9,0,0,1-5.994,1.178,12.2,12.2,0,0,1-3.053-.42,9.488,9.488,0,0,1-3.1-1.478,8.893,8.893,0,0,1-2.446-2.836,9.109,9.109,0,0,1-.983-4.5,7.118,7.118,0,0,1,1.373-4.486,9.759,9.759,0,0,1,3.7-2.836,19.268,19.268,0,0,1,5.341-1.478,46.005,46.005,0,0,1,6.414-.435h1.98a25.537,25.537,0,0,0-.525-5.649,9.768,9.768,0,0,0-1.448-3.428,4.718,4.718,0,0,0-2.221-1.673,7.852,7.852,0,0,0-2.731-.465,8.475,8.475,0,0,0-4.666,1.193q-1.879,1.182-2.6,4.426h-2.971a23.7,23.7,0,0,1,.2-3.2,4.815,4.815,0,0,1,1.448-2.746,5.538,5.538,0,0,1,1.688-1.058,13.884,13.884,0,0,1,2.4-.728,26.621,26.621,0,0,1,2.806-.39c1-.09,2-.135,3.008-.135a18.566,18.566,0,0,1,4.321.5,8.1,8.1,0,0,1,3.7,1.98,10.19,10.19,0,0,1,2.581,4.231,22.217,22.217,0,0,1,.953,7.157V68.285h-3.293Z" transform="translate(86.88 -10.66)"/></g></g></g></svg>