<svg xmlns="http://www.w3.org/2000/svg" xmlns:xlink="http://www.w3.org/1999/xlink" viewBox="0 0 16 16"><defs><style>.a{fill:#02becf;}.b{clip-path:url(#a);}.c{fill:#cfad5d;}</style><clipPath id="a"><rect class="a" width="16" height="16"/></clipPath></defs><g class="b"><g transform="translate(0 0.291)"><path class="c" d="M12.519,8.81V22.026c.162.023.325.069.51.093a9.186,9.186,0,0,0,1.252.069h.232a5.573,5.573,0,0,0,2.249-.464,4.891,4.891,0,0,0,.834-.487l-.44,1.646a12.826,12.826,0,0,1-2.574.232h-5.1V10.735A4.359,4.359,0,0,0,9.2,9.043a1.348,1.348,0,0,0-1.345-.626H7.626V7.7h4.892V8.81Z" transform="translate(-7.626 -7.696)"/><path class="a" d="M14.282,8.648a6.316,6.316,0,0,0-.673.023,2.29,2.29,0,0,0-.394.046V7.7h.765a15.129,15.129,0,0,1,4.2.533,8.552,8.552,0,0,1,3.014,1.507,6.359,6.359,0,0,1,1.832,2.388,8.28,8.28,0,0,1,.6,3.2,8.574,8.574,0,0,1-.58,3.153,6.677,6.677,0,0,1-1.739,2.48,8.573,8.573,0,0,1-2.828,1.6c-.185.046-.371.116-.58.162l.44-1.646a7.921,7.921,0,0,1,.719-1.438,6.344,6.344,0,0,0,.626-1.391,8.322,8.322,0,0,0,.44-2.828,8.649,8.649,0,0,0-.417-2.782,6.434,6.434,0,0,0-1.159-2.157,5.187,5.187,0,0,0-1.786-1.368,5.714,5.714,0,0,0-2.3-.464h-.185Z" transform="translate(-7.626 -7.696)"/></g></g></svg>