<svg xmlns="http://www.w3.org/2000/svg" xmlns:xlink="http://www.w3.org/1999/xlink" viewBox="0 0 16 16"><defs><style>.a{fill:#fff;}.b{clip-path:url(#a);}</style><clipPath id="a"><rect class="a" width="16" height="16" transform="translate(604 28)"/></clipPath></defs><g class="b" transform="translate(-604 -28)"><path class="a" d="M21.577,19.373c-.911-.855-1.849-1.387-2.821-.623l-.581.465c-.424.335-1.26,1.955-4.042-1.556s-1.011-3.954-.587-4.289l.584-.46c.969-.77.662-1.805.039-2.888l-.374-.653c-.626-1.08-1.329-1.8-2.3-1.035l-.526.418A4.731,4.731,0,0,0,8.985,11.8c-.44,2.209.507,4.8,2.81,7.713s4.613,4.419,6.866,4.5a4.752,4.752,0,0,0,3.419-1.238l.526-.418c.969-.767.426-1.614-.482-2.47l-.548-.515Z" transform="translate(596 19.985)"/></g></svg>