<svg xmlns="http://www.w3.org/2000/svg" xmlns:xlink="http://www.w3.org/1999/xlink" viewBox="0 0 16 16"><defs><style>.a{fill:#fff;}.b{clip-path:url(#a);}</style><clipPath id="a"><rect class="a" width="16" height="16" transform="translate(1957 26.999)"/></clipPath></defs><g class="b" transform="translate(-1957 -26.999)"><path class="a" d="M16,8a8,8,0,1,0,8,8,8,8,0,0,0-8-8Zm1.642,7.719-.742.645a1.008,1.008,0,0,0-.465,1.033H15.6v-.3c0-1.47,1.4-1.722,1.4-3.893,0-.833-.313-1.2-1-1.2-.64,0-1.138.335-1,1a.921.921,0,0,1-1,1c-.869-.047-1-.39-1-1,0-1,1.069-1.769,3-1.769s3,.645,3,2.207a2.946,2.946,0,0,1-1.359,2.279ZM16,21.343A1.345,1.345,0,1,1,17.346,20,1.333,1.333,0,0,1,16,21.343Z" transform="translate(1949.001 19)"/></g></svg>