<svg xmlns="http://www.w3.org/2000/svg" xmlns:xlink="http://www.w3.org/1999/xlink" viewBox="0 0 16 16"><defs><style>.a{fill:#999;}.b{clip-path:url(#a);}</style><clipPath id="a"><rect class="a" width="16" height="16" transform="translate(0 331)"/></clipPath></defs><g class="b" transform="translate(0 -331)"><path class="a" d="M17.266,15.658h1.482a1.214,1.214,0,0,1,1.3,1.122.848.848,0,0,1,0,.17,1.214,1.214,0,0,1-1.095,1.328,1.274,1.274,0,0,1-.264,0H17.266Zm1.885,4.683H17.267v-.7H18.84a3.24,3.24,0,0,0,2.2-.685,2.653,2.653,0,0,0,.792-2.013,2.592,2.592,0,0,0-.368-1.373,2.443,2.443,0,0,0-1.04-.923,3.533,3.533,0,0,0-1.557-.325H15.619V18.28h-.9v1.361h.9v.7h-.9v1.414h.9v1.559h1.647V21.757h1.881V20.343h0Zm-.866-10.065a8,8,0,1,1-8,8,8,8,0,0,1,8-8Z" transform="translate(-10.285 320.723)"/></g></svg>