<svg xmlns="http://www.w3.org/2000/svg" xmlns:xlink="http://www.w3.org/1999/xlink" viewBox="0 0 16 16"><defs><style>.a{fill:#648017;}.b{clip-path:url(#a);}</style><clipPath id="a"><rect class="a" width="16" height="16" transform="translate(0 355)"/></clipPath></defs><g class="b" transform="translate(0 -355)"><path class="a" d="M23.945,14.088a1.1,1.1,0,0,0-.889-.753l-4.189-.606-1.877-3.8a1.15,1.15,0,0,0-1.98,0l-1.877,3.8-4.189.606a1.1,1.1,0,0,0-.609,1.883l3.032,2.96-.714,4.172a1.1,1.1,0,0,0,1.6,1.163L16,21.542l3.749,1.971a1.122,1.122,0,0,0,.512.125.044.044,0,0,0,.028,0,1.1,1.1,0,0,0,1.1-1.1,1.132,1.132,0,0,0-.083-.424l-.676-3.934,3.034-2.96A1.1,1.1,0,0,0,23.945,14.088Z" transform="translate(-7.999 346.997)"/></g></svg>